<svg width="25" height="20" viewBox="0 0 25 20" fill="none" xmlns="http://www.w3.org/2000/svg">
<path d="M20.3782 1.36959C20.793 0.974676 21.345 0.75635 21.9177 0.760683C22.4905 0.765017 23.0391 0.991672 23.4479 1.39282C23.8567 1.79397 24.0936 2.33824 24.1088 2.91078C24.1239 3.48332 23.916 4.03935 23.529 4.46154L11.7796 19.1556C11.5776 19.3732 11.3338 19.5479 11.0627 19.6691C10.7916 19.7903 10.4989 19.8556 10.202 19.8611C9.90513 19.8666 9.61019 19.8122 9.33482 19.7011C9.05945 19.59 8.80931 19.4245 8.59936 19.2145L0.807663 11.4228C0.590677 11.2206 0.416638 10.9768 0.295929 10.7059C0.175219 10.435 0.110312 10.1425 0.10508 9.846C0.0998479 9.54946 0.154398 9.2549 0.265476 8.9799C0.376553 8.7049 0.541882 8.45509 0.751601 8.24537C0.961319 8.03565 1.21113 7.87033 1.48613 7.75925C1.76113 7.64817 2.05569 7.59362 2.35223 7.59885C2.64877 7.60408 2.94122 7.66899 3.21213 7.7897C3.48304 7.91041 3.72686 8.08445 3.92905 8.30143L10.0953 14.4647L20.3222 1.43438C20.3407 1.41171 20.3603 1.39008 20.3811 1.36959H20.3782Z" fill="white"/>
</svg>
