<svg width="22" height="22" viewBox="0 0 22 22" fill="none" xmlns="http://www.w3.org/2000/svg">
<circle cx="11" cy="11" r="11" fill="#7D7D7D"/>
<path d="M16.2502 16.4957H5.75295C5.55409 16.4957 5.36338 16.5749 5.22276 16.716C5.08215 16.857 5.00315 17.0483 5.00315 17.2478C5.00315 17.4473 5.08215 17.6386 5.22276 17.7797C5.36338 17.9208 5.55409 18 5.75295 18H16.2502C16.4491 18 16.6398 17.9208 16.7804 17.7797C16.921 17.6386 17 17.4473 17 17.2478C17 17.0483 16.921 16.857 16.7804 16.716C16.6398 16.5749 16.4491 16.4957 16.2502 16.4957ZM5.75295 14.9913H5.82044L8.94712 14.7055C9.28962 14.6713 9.60997 14.5199 9.85438 14.2767L16.6026 7.5072C16.8645 7.22962 17.0061 6.85921 16.9962 6.47712C16.9864 6.09504 16.826 5.73245 16.5501 5.46881L14.4957 3.40786C14.2275 3.1552 13.8762 3.01023 13.5084 3.00052C13.1407 2.99081 12.7822 3.11705 12.5012 3.35521L5.75295 10.1248C5.51059 10.3699 5.35969 10.6913 5.32557 11.0349L5.00315 14.1714C4.99305 14.2816 5.0073 14.3927 5.04489 14.4967C5.08247 14.6007 5.14247 14.6951 5.22059 14.7732C5.29066 14.8429 5.37375 14.898 5.4651 14.9355C5.55645 14.9729 5.65428 14.9919 5.75295 14.9913ZM13.4534 4.4609L15.5004 6.51433L14.0008 7.98107L11.9913 5.96524L13.4534 4.4609ZM6.78018 11.1628L11.0016 6.95811L13.026 8.98898L8.82715 13.2011L6.57774 13.4117L6.78018 11.1628Z" fill="white"/>
</svg>
