<svg width="26" height="26" viewBox="0 0 26 26" fill="none" xmlns="http://www.w3.org/2000/svg">
<path d="M13 26C16.4478 26 19.7544 24.6304 22.1924 22.1924C24.6304 19.7544 26 16.4478 26 13C26 9.55219 24.6304 6.24558 22.1924 3.80761C19.7544 1.36964 16.4478 0 13 0C9.55219 0 6.24558 1.36964 3.80761 3.80761C1.36964 6.24558 0 9.55219 0 13C0 16.4478 1.36964 19.7544 3.80761 22.1924C6.24558 24.6304 9.55219 26 13 26ZM5.6875 8.125H20.3125C20.528 8.125 20.7347 8.2106 20.887 8.36298C21.0394 8.51535 21.125 8.72201 21.125 8.9375C21.125 9.15299 21.0394 9.35965 20.887 9.51202C20.7347 9.6644 20.528 9.75 20.3125 9.75H5.6875C5.47201 9.75 5.26535 9.6644 5.11298 9.51202C4.9606 9.35965 4.875 9.15299 4.875 8.9375C4.875 8.72201 4.9606 8.51535 5.11298 8.36298C5.26535 8.2106 5.47201 8.125 5.6875 8.125ZM8.125 13.8125C8.125 13.597 8.2106 13.3903 8.36298 13.238C8.51535 13.0856 8.72201 13 8.9375 13H17.0625C17.278 13 17.4847 13.0856 17.637 13.238C17.7894 13.3903 17.875 13.597 17.875 13.8125C17.875 14.028 17.7894 14.2347 17.637 14.387C17.4847 14.5394 17.278 14.625 17.0625 14.625H8.9375C8.72201 14.625 8.51535 14.5394 8.36298 14.387C8.2106 14.2347 8.125 14.028 8.125 13.8125ZM11.375 18.6875C11.375 18.472 11.4606 18.2653 11.613 18.113C11.7653 17.9606 11.972 17.875 12.1875 17.875H13.8125C14.028 17.875 14.2347 17.9606 14.387 18.113C14.5394 18.2653 14.625 18.472 14.625 18.6875C14.625 18.903 14.5394 19.1097 14.387 19.262C14.2347 19.4144 14.028 19.5 13.8125 19.5H12.1875C11.972 19.5 11.7653 19.4144 11.613 19.262C11.4606 19.1097 11.375 18.903 11.375 18.6875Z" fill="#C4C4C4"/>
</svg>
