<svg width="11" height="12" viewBox="0 0 11 12" fill="none" xmlns="http://www.w3.org/2000/svg">
<path d="M4 4.75V9.25C4 9.32292 3.97656 9.38281 3.92969 9.42969C3.88281 9.47656 3.82292 9.5 3.75 9.5H3.25C3.17708 9.5 3.11719 9.47656 3.07031 9.42969C3.02344 9.38281 3 9.32292 3 9.25V4.75C3 4.67708 3.02344 4.61719 3.07031 4.57031C3.11719 4.52344 3.17708 4.5 3.25 4.5H3.75C3.82292 4.5 3.88281 4.52344 3.92969 4.57031C3.97656 4.61719 4 4.67708 4 4.75ZM6 4.75V9.25C6 9.32292 5.97656 9.38281 5.92969 9.42969C5.88281 9.47656 5.82292 9.5 5.75 9.5H5.25C5.17708 9.5 5.11719 9.47656 5.07031 9.42969C5.02344 9.38281 5 9.32292 5 9.25V4.75C5 4.67708 5.02344 4.61719 5.07031 4.57031C5.11719 4.52344 5.17708 4.5 5.25 4.5H5.75C5.82292 4.5 5.88281 4.52344 5.92969 4.57031C5.97656 4.61719 6 4.67708 6 4.75ZM8 4.75V9.25C8 9.32292 7.97656 9.38281 7.92969 9.42969C7.88281 9.47656 7.82292 9.5 7.75 9.5H7.25C7.17708 9.5 7.11719 9.47656 7.07031 9.42969C7.02344 9.38281 7 9.32292 7 9.25V4.75C7 4.67708 7.02344 4.61719 7.07031 4.57031C7.11719 4.52344 7.17708 4.5 7.25 4.5H7.75C7.82292 4.5 7.88281 4.52344 7.92969 4.57031C7.97656 4.61719 8 4.67708 8 4.75ZM9 10.4062V3H2V10.4062C2 10.5208 2.01823 10.6263 2.05469 10.7227C2.09115 10.819 2.12891 10.8893 2.16797 10.9336C2.20703 10.9779 2.23438 11 2.25 11H8.75C8.76562 11 8.79297 10.9779 8.83203 10.9336C8.87109 10.8893 8.90885 10.819 8.94531 10.7227C8.98177 10.6263 9 10.5208 9 10.4062ZM3.75 2H7.25L6.875 1.08594C6.83854 1.03906 6.79427 1.01042 6.74219 1H4.26562C4.21354 1.01042 4.16927 1.03906 4.13281 1.08594L3.75 2ZM11 2.25V2.75C11 2.82292 10.9766 2.88281 10.9297 2.92969C10.8828 2.97656 10.8229 3 10.75 3H10V10.4062C10 10.8385 9.8776 11.2122 9.63281 11.5273C9.38802 11.8424 9.09375 12 8.75 12H2.25C1.90625 12 1.61198 11.8477 1.36719 11.543C1.1224 11.2383 1 10.8698 1 10.4375V3H0.25C0.177083 3 0.117188 2.97656 0.0703125 2.92969C0.0234375 2.88281 0 2.82292 0 2.75V2.25C0 2.17708 0.0234375 2.11719 0.0703125 2.07031C0.117188 2.02344 0.177083 2 0.25 2H2.66406L3.21094 0.695312C3.28906 0.502604 3.42969 0.338542 3.63281 0.203125C3.83594 0.0677083 4.04167 0 4.25 0H6.75C6.95833 0 7.16406 0.0677083 7.36719 0.203125C7.57031 0.338542 7.71094 0.502604 7.78906 0.695312L8.33594 2H10.75C10.8229 2 10.8828 2.02344 10.9297 2.07031C10.9766 2.11719 11 2.17708 11 2.25Z" fill="#666666"/>
</svg>
