<svg width="12" height="15" viewBox="0 0 12 15" fill="none" xmlns="http://www.w3.org/2000/svg">
<path d="M11.2502 13.4957H0.752954C0.554094 13.4957 0.363379 13.5749 0.222764 13.716C0.0821484 13.857 0.00315139 14.0483 0.00315139 14.2478C0.00315139 14.4473 0.0821484 14.6386 0.222764 14.7797C0.363379 14.9208 0.554094 15 0.752954 15H11.2502C11.4491 15 11.6398 14.9208 11.7804 14.7797C11.921 14.6386 12 14.4473 12 14.2478C12 14.0483 11.921 13.857 11.7804 13.716C11.6398 13.5749 11.4491 13.4957 11.2502 13.4957ZM0.752954 11.9913H0.820437L3.94712 11.7055C4.28962 11.6713 4.60997 11.5199 4.85438 11.2767L11.6026 4.5072C11.8645 4.22962 12.0061 3.85921 11.9962 3.47712C11.9864 3.09504 11.826 2.73245 11.5501 2.46881L9.49566 0.407858C9.22752 0.155201 8.87616 0.0102292 8.50841 0.000521073C8.14067 -0.00918705 7.78219 0.117046 7.50118 0.355206L0.752954 7.12476C0.510592 7.36994 0.359686 7.6913 0.325567 8.03488L0.00315139 11.1714C-0.00694924 11.2816 0.00730104 11.3927 0.0448863 11.4967C0.0824716 11.6007 0.142466 11.6951 0.220594 11.7732C0.290656 11.8429 0.373746 11.898 0.4651 11.9355C0.556454 11.9729 0.654275 11.9919 0.752954 11.9913ZM8.45343 1.4609L10.5004 3.51433L9.00079 4.98107L6.99131 2.96524L8.45343 1.4609ZM1.78018 8.16275L6.00158 3.95811L8.02604 5.98898L3.82715 10.2011L1.57774 10.4117L1.78018 8.16275Z" fill="#7D7D7D"/>
</svg>
