<svg width="26" height="26" viewBox="0 0 26 26" fill="none" xmlns="http://www.w3.org/2000/svg">
<path d="M10.5 0.500001C8.93574 0.500837 7.39346 0.868644 5.99715 1.57386C4.60084 2.27908 3.38945 3.30203 2.46034 4.56051C1.53123 5.81899 0.910323 7.27788 0.647512 8.81994C0.384702 10.362 0.487324 11.9442 0.947129 13.4394C1.40694 14.9346 2.2111 16.301 3.29499 17.429C4.37888 18.5569 5.71226 19.4148 7.18797 19.9337C8.66368 20.4526 10.2405 20.6181 11.7918 20.4169C13.3431 20.2157 14.8256 19.6533 16.12 18.775L22.3 24.95C22.4717 25.1342 22.6787 25.282 22.9087 25.3845C23.1387 25.4869 23.387 25.542 23.6387 25.5465C23.8905 25.5509 24.1406 25.5046 24.374 25.4103C24.6075 25.316 24.8196 25.1756 24.9976 24.9976C25.1757 24.8195 25.316 24.6075 25.4103 24.374C25.5046 24.1405 25.5509 23.8905 25.5465 23.6387C25.5421 23.3869 25.487 23.1387 25.3845 22.9087C25.282 22.6787 25.1342 22.4717 24.95 22.3L18.775 16.12C19.7966 14.6165 20.3891 12.8629 20.4886 11.0478C20.5882 9.2328 20.1912 7.42494 19.3402 5.81865C18.4893 4.21237 17.2166 2.86841 15.659 1.93129C14.1014 0.994173 12.3178 0.499341 10.5 0.500001ZM4.25003 10.5C4.25003 8.8424 4.90851 7.25269 6.08061 6.08058C7.25271 4.90848 8.84242 4.25 10.5 4.25C12.1576 4.25 13.7473 4.90848 14.9194 6.08058C16.0915 7.25269 16.75 8.8424 16.75 10.5C16.75 12.1576 16.0915 13.7473 14.9194 14.9194C13.7473 16.0915 12.1576 16.75 10.5 16.75C8.84242 16.75 7.25271 16.0915 6.08061 14.9194C4.90851 13.7473 4.25003 12.1576 4.25003 10.5Z" fill="#7D7D7D"/>
</svg>
