<svg width="26" height="26" viewBox="0 0 26 26" fill="none" xmlns="http://www.w3.org/2000/svg">
<path d="M12.8658 0.0722656C9.47261 0.0722656 6.21845 1.42019 3.81913 3.8195C1.41982 6.21881 0.0718994 9.47298 0.0718994 12.8661C0.0718994 16.2593 1.41982 19.5134 3.81913 21.9127C6.21845 24.3121 9.47261 25.66 12.8658 25.66C16.2589 25.66 19.5131 24.3121 21.9124 21.9127C24.3117 19.5134 25.6596 16.2593 25.6596 12.8661C25.6596 9.47298 24.3117 6.21881 21.9124 3.8195C19.5131 1.42019 16.2589 0.0722656 12.8658 0.0722656V0.0722656ZM7.83457 8.3339C7.68376 8.47955 7.48178 8.56015 7.27212 8.55833C7.06246 8.55651 6.86191 8.47241 6.71365 8.32416C6.5654 8.1759 6.4813 7.97535 6.47948 7.76569C6.47766 7.55603 6.55826 7.35405 6.70391 7.20324C7.81698 6.09017 9.91997 6.09017 11.033 7.20324C11.183 7.35339 11.2671 7.55694 11.267 7.76913C11.2668 7.98132 11.1824 8.18476 11.0322 8.3347C10.8821 8.48463 10.6785 8.56878 10.4663 8.56863C10.2542 8.56848 10.0507 8.48404 9.90078 8.3339C9.41781 7.85093 8.31594 7.85093 7.83297 8.3339H7.83457ZM12.8658 20.8623C11.0986 20.8623 9.66729 19.0727 9.66729 16.8642C9.66729 14.6557 11.0986 12.8661 12.8658 12.8661C14.6329 12.8661 16.0642 14.6557 16.0642 16.8642C16.0642 19.0727 14.6329 20.8623 12.8658 20.8623ZM19.0292 8.3339C18.9551 8.40875 18.867 8.46817 18.7698 8.50872C18.6726 8.54927 18.5684 8.57015 18.4631 8.57015C18.3578 8.57015 18.2535 8.54927 18.1563 8.50872C18.0592 8.46817 17.971 8.40875 17.8969 8.3339C17.414 7.85093 16.3121 7.85093 15.8291 8.3339C15.6783 8.47955 15.4763 8.56015 15.2667 8.55833C15.057 8.55651 14.8565 8.47241 14.7082 8.32416C14.56 8.1759 14.4759 7.97535 14.474 7.76569C14.4722 7.55603 14.5528 7.35405 14.6985 7.20324C15.8115 6.09017 17.9145 6.09017 19.0276 7.20324C19.1775 7.35319 19.2617 7.55654 19.2617 7.76857C19.2617 7.9806 19.1775 8.18395 19.0276 8.3339H19.0292Z" fill="white"/>
</svg>
