<svg width="40" height="40" viewBox="0 0 40 40" fill="none" xmlns="http://www.w3.org/2000/svg">
<circle cx="19.9575" cy="19.9575" r="17.4575" fill="#1391ED" stroke="#1391ED" stroke-width="5"/>
<path d="M28.2161 23.0546C28.2161 23.0546 30.5101 25.5435 30.5101 27.069C30.5101 27.6774 30.2684 28.2609 29.8382 28.6911C29.408 29.1213 28.8245 29.363 28.2161 29.363C27.6077 29.363 27.0242 29.1213 26.594 28.6911C26.1638 28.2609 25.9221 27.6774 25.9221 27.069C25.9221 25.5435 28.2161 23.0546 28.2161 23.0546ZM12.1584 27.069V16.7462C11.55 16.7462 10.9665 16.5045 10.5363 16.0743C10.1061 15.6441 9.86439 15.0606 9.86439 14.4522C9.86439 13.8438 10.1061 13.2603 10.5363 12.8301C10.9665 12.3999 11.55 12.1582 12.1584 12.1582V11.0113C12.1584 10.4029 12.4 9.81937 12.8302 9.38917C13.2604 8.95897 13.8439 8.71729 14.4523 8.71729H16.7463C17.3547 8.71729 17.9382 8.95897 18.3684 9.38917C18.7986 9.81937 19.0403 10.4029 19.0403 11.0113V12.1582H28.2161C28.8245 12.1582 29.408 12.3999 29.8382 12.8301C30.2684 13.2603 30.5101 13.8438 30.5101 14.4522V19.0401C30.8143 19.0401 31.106 19.161 31.3211 19.3761C31.5362 19.5912 31.6571 19.8829 31.6571 20.1871C31.6571 20.4913 31.5362 20.7831 31.3211 20.9982C31.106 21.2133 30.8143 21.3341 30.5101 21.3341H25.9221C25.618 21.3341 25.3262 21.2133 25.1111 20.9982C24.896 20.7831 24.7752 20.4913 24.7752 20.1871C24.7752 19.8829 24.896 19.5912 25.1111 19.3761C25.3262 19.161 25.618 19.0401 25.9221 19.0401V16.7462H19.0403V27.069H20.1872C20.7956 27.069 21.3791 27.3107 21.8093 27.7409C22.2395 28.1711 22.4812 28.7546 22.4812 29.363V31.6569H8.71741V29.363C8.71741 28.7546 8.95909 28.1711 9.38929 27.7409C9.8195 27.3107 10.403 27.069 11.0114 27.069H12.1584Z" fill="white"/>
</svg>
