<svg width="40" height="40" viewBox="0 0 40 40" fill="none" xmlns="http://www.w3.org/2000/svg">
<circle cx="19.9575" cy="19.9575" r="17.4575" fill="#1391ED" stroke="#1391ED" stroke-width="5"/>
<path d="M15.9221 25.3187C14.7836 25.2916 13.889 24.3334 13.889 23.1949V21.4189C13.889 21.3265 13.8582 21.2367 13.8016 21.1637C13.745 21.0906 13.6657 21.0385 13.5762 21.0154C11.8169 20.554 10.5527 18.9453 10.5527 16.9779C10.5541 15.9963 10.9011 15.0465 11.5328 14.2952C12.1645 13.5439 13.0406 13.039 14.0074 12.8691C14.0954 12.8545 14.1765 12.812 14.2386 12.7479C14.3007 12.6838 14.3406 12.6015 14.3525 12.513C14.5242 11.209 15.1641 10.0119 16.153 9.14468C17.1418 8.27746 18.4123 7.79932 19.7275 7.79932C21.0428 7.79932 22.3132 8.27746 23.3021 9.14468C24.291 10.0119 24.9309 11.209 25.1026 12.513C25.1145 12.6015 25.1544 12.6838 25.2165 12.7479C25.2786 12.812 25.3597 12.8545 25.4477 12.8691C26.4765 13.0478 27.4009 13.6059 28.0381 14.4332C28.6753 15.2605 28.9789 16.2968 28.889 17.3371C28.799 18.3775 28.3221 19.3462 27.5523 20.0519C26.7826 20.7576 25.7762 21.1488 24.732 21.1483C23.8268 21.144 22.9516 20.8229 22.2584 20.2407C22.1859 20.1809 22.0952 20.1476 22.0011 20.1462C21.9071 20.1449 21.8155 20.1757 21.7413 20.2334C21.1676 20.6869 20.4588 20.9355 19.7275 20.9398C19.3429 20.9369 18.9605 20.8811 18.5911 20.774C18.5291 20.7563 18.4637 20.7532 18.4002 20.765C18.3368 20.7767 18.2769 20.8031 18.2254 20.842C18.1738 20.8808 18.132 20.9311 18.1032 20.9889C18.0744 21.0467 18.0594 21.1103 18.0594 21.1749V23.2335C18.0595 23.5118 18.0039 23.7872 17.8958 24.0437C17.7878 24.3001 17.6295 24.5324 17.4303 24.7267C17.2312 24.921 16.9951 25.0735 16.7361 25.1752C16.477 25.2768 16.2003 25.3256 15.9221 25.3187Z" fill="white"/>
<path d="M20.1127 22.5923C20.0085 22.6003 19.9111 22.6471 19.8398 22.7234C19.7684 22.7998 19.7284 22.9002 19.7275 23.0047V23.2335C19.7264 24.0346 19.4695 24.8143 18.9942 25.4591C18.5188 26.1039 17.85 26.58 17.0851 26.8179C17.0297 26.8357 16.9786 26.8648 16.9351 26.9034C16.8917 26.942 16.8568 26.9893 16.8327 27.0423C16.8086 27.0952 16.7958 27.1525 16.7952 27.2107C16.7946 27.2688 16.8061 27.3265 16.8291 27.3799L18.9617 32.3218C19.0263 32.4713 19.1332 32.5987 19.2692 32.6882C19.4053 32.7777 19.5646 32.8253 19.7275 32.8253C19.8906 32.8252 20.0501 32.7772 20.1862 32.6873C20.3223 32.5974 20.4291 32.4696 20.4933 32.3197L24.3394 23.3456C24.3646 23.2868 24.376 23.2231 24.3726 23.1592C24.3692 23.0954 24.3512 23.0332 24.32 22.9774C24.2888 22.9216 24.2451 22.8738 24.1924 22.8376C24.1398 22.8013 24.0795 22.7777 24.0162 22.7685C23.3614 22.6803 22.7276 22.4757 22.1448 22.1643C22.0878 22.134 22.0246 22.1172 21.9601 22.1154C21.8956 22.1136 21.8316 22.1268 21.7731 22.1539C21.2494 22.3956 20.6875 22.544 20.1127 22.5923Z" fill="white"/>
</svg>
