<svg width="39" height="39" viewBox="0 0 39 39" fill="none" xmlns="http://www.w3.org/2000/svg">
<circle cx="19.1973" cy="19.1973" r="17.2577" fill="#F84A24" stroke="#F84A24" stroke-width="3.87931"/>
<path d="M8.96992 17.3183C8.31447 17.9411 7.94305 18.7935 7.94305 19.7005V26.29C7.94305 28.1041 9.40688 29.5684 11.2203 29.5684H26.1644C26.8745 29.5684 27.5299 29.0548 27.6064 28.3445C27.6938 27.5249 27.0493 26.8364 26.2518 26.8364H20.5057C20.1999 26.8364 19.9595 26.596 19.9595 26.29C19.9595 25.984 20.1999 25.7436 20.5057 25.7436H28.3492C29.0593 25.7436 29.7147 25.23 29.7912 24.5197C29.8786 23.7001 29.2341 23.0117 28.4366 23.0117H20.5057C20.1999 23.0117 19.9595 22.7713 19.9595 22.4653C19.9595 22.1593 20.1999 21.9189 20.5057 21.9189H29.4416C30.1517 21.9189 30.8071 21.4053 30.8836 20.695C30.971 19.8754 30.3265 19.1869 29.529 19.1869H20.5057C20.1999 19.1869 19.9595 18.9465 19.9595 18.6405C19.9595 18.3345 20.1999 18.0941 20.5057 18.0941H27.2568C27.9669 18.0941 28.6223 17.5805 28.6988 16.8702C28.7862 16.0506 28.1417 15.3622 27.3442 15.3622H16.5294L18.1571 12.51C18.2777 12.3001 18.3298 12.0579 18.3064 11.817C18.2829 11.576 18.1848 11.3484 18.026 11.1659L17.5672 10.6741C17.1521 10.2479 16.4638 10.2261 16.0269 10.6413L8.96992 17.3183ZM25.4107 13.2531C25.4107 13.8213 24.9518 14.2694 24.3947 14.2694C23.8267 14.2694 23.3788 13.8104 23.3788 13.2531C23.4115 12.5209 23.1384 11.7997 22.6032 11.2205L22.5267 11.1549C21.5435 10.1824 21.0192 8.93658 21.0629 7.63616C21.0614 7.50322 21.0864 7.37131 21.1362 7.24807C21.1861 7.12483 21.2599 7.01271 21.3533 6.91819C21.4468 6.82367 21.5581 6.74864 21.6807 6.69743C21.8034 6.64623 21.935 6.61987 22.0679 6.61987C22.625 6.61987 23.0838 7.07884 23.0838 7.63616C23.0511 8.36833 23.3242 9.08957 23.8594 9.66875L23.9359 9.74524C24.93 10.7069 25.4543 11.9527 25.4107 13.2531ZM29.7912 13.2531C29.7912 13.8104 29.3324 14.2694 28.7643 14.2694C28.1963 14.2694 27.7484 13.8104 27.7484 13.2531C27.7812 12.5209 27.5081 11.7997 26.9728 11.2205L26.8963 11.1549C25.9132 10.1824 25.3888 8.93658 25.4325 7.63616C25.4325 7.07884 25.8913 6.61987 26.4484 6.61987C27.0056 6.61987 27.4644 7.07884 27.4644 7.63616C27.4316 8.36833 27.7047 9.08957 28.24 9.66875L28.3165 9.74524C29.2996 10.7069 29.824 11.9527 29.7912 13.2531Z" fill="white"/>
</svg>
