<svg width="39" height="39" viewBox="0 0 39 39" fill="none" xmlns="http://www.w3.org/2000/svg">
<circle cx="19.1968" cy="19.2398" r="17.2577" fill="#F84A24" stroke="#F84A24" stroke-width="3.87931"/>
<path d="M21.0417 14.6093C20.9714 14.539 20.888 14.4833 20.7963 14.4453C20.7045 14.4073 20.6061 14.3877 20.5068 14.3877C20.4074 14.3877 20.3091 14.4073 20.2173 14.4453C20.1255 14.4833 20.0421 14.539 19.9719 14.6093L15.5594 19.0218C15.4891 19.092 15.4334 19.1754 15.3954 19.2672C15.3573 19.359 15.3378 19.4574 15.3378 19.5567C15.3378 19.656 15.3573 19.7544 15.3954 19.8462C15.4334 19.938 15.4891 20.0214 15.5594 20.0916L19.3034 23.8357C19.3737 23.9059 19.4571 23.9616 19.5488 23.9997C19.6406 24.0377 19.739 24.0573 19.8383 24.0573C19.9377 24.0573 20.036 24.0377 20.1278 23.9997C20.2196 23.9616 20.303 23.9059 20.3732 23.8357L24.7857 19.4232C24.856 19.3529 24.9117 19.2695 24.9497 19.1777C24.9878 19.086 25.0073 18.9876 25.0073 18.8883C25.0073 18.7889 24.9878 18.6905 24.9497 18.5988C24.9117 18.507 24.856 18.4236 24.7857 18.3534L21.0417 14.6093ZM18.3712 19.824C18.2654 19.9299 18.1307 20.002 17.9839 20.0312C17.8372 20.0604 17.6851 20.0455 17.5468 19.9882C17.4086 19.931 17.2904 19.834 17.2073 19.7096C17.1242 19.5852 17.0798 19.439 17.0798 19.2894C17.0798 19.1398 17.1242 18.9935 17.2073 18.8691C17.2904 18.7447 17.4086 18.6478 17.5468 18.5905C17.6851 18.5333 17.8372 18.5183 17.9839 18.5476C18.1307 18.5768 18.2654 18.6489 18.3712 18.7547C18.5129 18.8965 18.5926 19.0889 18.5926 19.2894C18.5926 19.4899 18.5129 19.6822 18.3712 19.824ZM20.6403 22.0932C20.5346 22.199 20.3998 22.2711 20.2531 22.3003C20.1063 22.3295 19.9542 22.3146 19.816 22.2573C19.6777 22.2001 19.5596 22.1032 19.4764 21.9788C19.3933 21.8544 19.3489 21.7081 19.3489 21.5585C19.3489 21.4089 19.3933 21.2626 19.4764 21.1382C19.5596 21.0138 19.6777 20.9169 19.816 20.8597C19.9542 20.8024 20.1063 20.7875 20.2531 20.8167C20.3998 20.8459 20.5346 20.918 20.6403 21.0238C20.7821 21.1657 20.8617 21.358 20.8617 21.5585C20.8617 21.759 20.7821 21.9513 20.6403 22.0932ZM20.6403 17.5549C20.5346 17.6607 20.3998 17.7328 20.2531 17.762C20.1063 17.7913 19.9542 17.7763 19.816 17.7191C19.6777 17.6619 19.5596 17.5649 19.4764 17.4405C19.3933 17.3161 19.3489 17.1699 19.3489 17.0202C19.3489 16.8706 19.3933 16.7244 19.4764 16.6C19.5596 16.4756 19.6777 16.3786 19.816 16.3214C19.9542 16.2642 20.1063 16.2492 20.2531 16.2784C20.3998 16.3077 20.5346 16.3797 20.6403 16.4856C20.7821 16.6274 20.8617 16.8197 20.8617 17.0202C20.8617 17.2208 20.7821 17.4131 20.6403 17.5549ZM22.9095 19.824C22.8037 19.9299 22.6689 20.002 22.5222 20.0312C22.3754 20.0604 22.2233 20.0455 22.0851 19.9882C21.9469 19.931 21.8287 19.834 21.7456 19.7096C21.6624 19.5852 21.6181 19.439 21.6181 19.2894C21.6181 19.1398 21.6624 18.9935 21.7456 18.8691C21.8287 18.7447 21.9469 18.6478 22.0851 18.5905C22.2233 18.5333 22.3754 18.5183 22.5222 18.5476C22.6689 18.5768 22.8037 18.6489 22.9095 18.7547C23.0512 18.8965 23.1308 19.0889 23.1308 19.2894C23.1308 19.4899 23.0512 19.6822 22.9095 19.824Z" fill="white"/>
<path d="M30.0145 9.38048C29.0898 8.46038 27.8384 7.94385 26.5339 7.94385C25.2295 7.94385 23.9781 8.46038 23.0534 9.38048L19.7556 12.6844C19.7254 12.7149 19.7064 12.7548 19.7018 12.7975C19.6972 12.8402 19.7073 12.8832 19.7304 12.9194C19.7535 12.9557 19.7883 12.9829 19.8289 12.9967C19.8696 13.0106 19.9138 13.0101 19.9542 12.9955C20.1303 12.9247 20.3172 12.8841 20.5068 12.8754C20.8049 12.8746 21.1002 12.933 21.3756 13.0471C21.651 13.1612 21.901 13.3287 22.1113 13.5401L25.8549 17.2837C26.0662 17.4939 26.2338 17.7439 26.3478 18.0193C26.4619 18.2947 26.5203 18.59 26.5195 18.8881C26.5109 19.0778 26.4703 19.2646 26.3994 19.4408C26.3848 19.4812 26.3844 19.5253 26.3982 19.566C26.412 19.6067 26.4393 19.6414 26.4755 19.6645C26.5117 19.6877 26.5547 19.6978 26.5974 19.6932C26.6401 19.6886 26.68 19.6696 26.7105 19.6393L30.0145 16.3415C30.9346 15.4168 31.4511 14.1655 31.4511 12.861C31.4511 11.5565 30.9346 10.3052 30.0145 9.38048Z" fill="white"/>
<path d="M20.0273 25.4744C19.7294 25.4749 19.4344 25.4168 19.1591 25.3032C18.8838 25.1897 18.6336 25.0229 18.4228 24.8125L14.6792 21.067C14.4954 20.8834 14.3445 20.6694 14.2334 20.4345C14.0164 19.976 14.1677 19.2527 14.3507 18.6901C14.3628 18.6499 14.3611 18.6068 14.346 18.5676C14.3309 18.5284 14.3032 18.4953 14.2672 18.4737C14.2312 18.452 14.189 18.4429 14.1473 18.4479C14.1055 18.4528 14.0667 18.4715 14.0368 18.501L10.3858 22.143C9.46274 23.0661 8.94415 24.3181 8.94415 25.6235C8.94415 26.929 9.46274 28.1809 10.3858 29.104C11.3089 30.0271 12.5609 30.5457 13.8663 30.5457C15.1718 30.5457 16.4238 30.0271 17.3469 29.104L20.786 25.6587C20.8164 25.6282 20.8355 25.5883 20.8401 25.5455C20.8447 25.5027 20.8346 25.4595 20.8114 25.4233C20.7882 25.387 20.7533 25.3597 20.7125 25.346C20.6717 25.3322 20.6274 25.3328 20.587 25.3477C20.3894 25.4224 20.1899 25.4744 20.0273 25.4744Z" fill="white"/>
</svg>
