<svg width="39" height="39" viewBox="0 0 39 39" fill="none" xmlns="http://www.w3.org/2000/svg">
<circle cx="19.1973" cy="19.1973" r="17.2577" fill="#F84A24" stroke="#F84A24" stroke-width="3.87931"/>
<path d="M20.95 10.1213C20.9592 10.2321 21.0002 10.3379 21.0681 10.426C21.136 10.5141 21.2279 10.5806 21.3327 10.6177L22.7943 11.0916C23.239 11.2403 23.643 11.4907 23.974 11.823C24.305 12.1552 24.5539 12.56 24.701 13.0053L25.1767 14.466C25.2063 14.5502 25.255 14.6264 25.3191 14.6885C25.3832 14.7507 25.4608 14.7971 25.5459 14.8241C25.631 14.8511 25.7212 14.858 25.8094 14.8442C25.8976 14.8304 25.9813 14.7963 26.0541 14.7446C26.1411 14.6834 26.2093 14.5993 26.2511 14.5016L26.252 14.499L26.2563 14.4903C26.2607 14.4825 26.265 14.4747 26.265 14.466L26.3692 14.1449L26.3683 14.1423L26.7406 12.9984C26.8883 12.5543 27.1375 12.1507 27.4685 11.8199C27.7995 11.489 28.2032 11.2399 28.6474 11.0925L30.1089 10.6177C30.2215 10.578 30.3189 10.5043 30.3878 10.4068C30.4568 10.3094 30.4938 10.1929 30.4938 10.0736C30.4938 9.95419 30.4568 9.83776 30.3878 9.7403C30.3189 9.64284 30.2215 9.56915 30.1089 9.52938L30.0794 9.52244L28.6187 9.0477C28.1745 8.90012 27.7708 8.65102 27.4397 8.32018C27.1086 7.98934 26.8591 7.58587 26.7111 7.14179L26.2364 5.68198C26.1968 5.56913 26.1231 5.47137 26.0255 5.40221C25.928 5.33305 25.8113 5.2959 25.6918 5.2959C25.5722 5.2959 25.4555 5.33305 25.358 5.40221C25.2604 5.47137 25.1867 5.56913 25.1471 5.68198L24.6724 7.14179L24.6603 7.17824C24.512 7.61128 24.2668 8.00476 23.9434 8.32873C23.6201 8.65269 23.227 8.89859 22.7943 9.0477L21.3327 9.52244C21.2113 9.56524 21.1076 9.64744 21.0382 9.75596C20.9689 9.86448 20.9378 9.99308 20.95 10.1213ZM29.5665 15.5839L29.57 15.583C29.7288 15.4094 29.8494 15.2054 29.9223 14.9824L30.1818 14.1857C30.2036 14.1244 30.2439 14.0714 30.297 14.0339C30.3502 13.9964 30.4136 13.9762 30.4787 13.9762C30.5437 13.9762 30.6072 13.9964 30.6603 14.0339C30.7134 14.0714 30.7537 14.1244 30.7755 14.1857L31.0341 14.9824C31.1148 15.2246 31.2508 15.4446 31.4315 15.625C31.6121 15.8053 31.8324 15.941 32.0747 16.0213L32.8715 16.2808L32.8879 16.2842C32.9496 16.3056 33.0031 16.3457 33.041 16.3989C33.0788 16.4521 33.0991 16.5158 33.0991 16.5811C33.0991 16.6464 33.0788 16.71 33.041 16.7632C33.0031 16.8164 32.9496 16.8565 32.8879 16.8779L32.0903 17.1374C31.763 17.246 31.4782 17.4549 31.2763 17.7345L31.2771 17.738C31.1808 17.8725 31.1035 18.0218 31.0515 18.1797L30.7911 18.9765C30.7693 19.0378 30.7291 19.0908 30.6759 19.1283C30.6228 19.1658 30.5593 19.1859 30.4943 19.1859C30.4292 19.1859 30.3658 19.1658 30.3126 19.1283C30.2595 19.0908 30.2193 19.0378 30.1975 18.9765L29.9371 18.1797C29.8568 17.9369 29.7208 17.7162 29.54 17.5354C29.3591 17.3545 29.1384 17.2185 28.8956 17.1383L28.098 16.8779C28.0208 16.8508 27.9572 16.7947 27.9207 16.7214C27.8842 16.6481 27.8778 16.5635 27.9027 16.4856C27.9123 16.4556 27.9264 16.4272 27.9444 16.4014L27.9487 16.3953C27.9863 16.3424 28.0394 16.3024 28.1006 16.2808L28.8982 16.0213C29.1536 15.9327 29.3831 15.7824 29.5665 15.5839ZM19.2116 31.3336C12.501 31.3336 7.06097 25.8936 7.06097 19.183C7.06097 12.4724 12.501 7.03243 19.2116 7.03243C20.4692 7.03243 21.6816 7.22337 22.822 7.57747C22.6843 7.6783 22.5321 7.75787 22.3707 7.81354L20.9309 8.28047C20.5597 8.40411 20.2364 8.64064 20.0062 8.95702C19.7759 9.27339 19.6503 9.65379 19.6469 10.045C19.6435 10.4363 19.7623 10.8188 19.987 11.1392C20.2116 11.4596 20.5307 11.7018 20.8996 11.8319L22.3924 12.3171C22.6427 12.4021 22.8698 12.5441 23.0558 12.732C23.2418 12.9198 23.3817 13.1483 23.4643 13.3993L23.9373 14.8548C24.064 15.2332 24.307 15.563 24.6316 15.7948C24.9439 16.0156 25.3161 16.1359 25.6986 16.1394C26.0811 16.143 26.4555 16.0297 26.7719 15.8147C26.6627 16.0201 26.5993 16.2466 26.5858 16.4787C26.5723 16.7109 26.6092 16.9432 26.6938 17.1598C26.7785 17.3764 26.9089 17.5721 27.0762 17.7336C27.2435 17.8951 27.4437 18.0186 27.6632 18.0956L28.4912 18.3655C28.5394 18.383 28.5831 18.4113 28.6188 18.4481C28.6546 18.4849 28.6816 18.5294 28.6977 18.5781L28.9581 19.3696C29.0339 19.5988 29.16 19.8082 29.3273 19.9822C29.4945 20.1563 29.6986 20.2908 29.9246 20.3757C30.1506 20.4606 30.3927 20.4938 30.6332 20.4729C30.8737 20.452 31.1065 20.3775 31.3144 20.2549C30.7729 26.4647 25.5611 31.3336 19.2116 31.3336ZM15.74 18.3151C16.2003 18.3151 16.6418 18.1323 16.9674 17.8067C17.2929 17.4812 17.4758 17.0397 17.4758 16.5793C17.4758 16.119 17.2929 15.6775 16.9674 15.3519C16.6418 15.0264 16.2003 14.8435 15.74 14.8435C15.2796 14.8435 14.8381 15.0264 14.5126 15.3519C14.1871 15.6775 14.0042 16.119 14.0042 16.5793C14.0042 17.0397 14.1871 17.4812 14.5126 17.8067C14.8381 18.1323 15.2796 18.3151 15.74 18.3151ZM24.419 16.5793C24.419 16.119 24.2361 15.6775 23.9106 15.3519C23.585 15.0264 23.1435 14.8435 22.6832 14.8435C22.2228 14.8435 21.7813 15.0264 21.4558 15.3519C21.1303 15.6775 20.9474 16.119 20.9474 16.5793C20.9474 17.0397 21.1303 17.4812 21.4558 17.8067C21.7813 18.1323 22.2228 18.3151 22.6832 18.3151C23.1435 18.3151 23.585 18.1323 23.9106 17.8067C24.2361 17.4812 24.419 17.0397 24.419 16.5793ZM13.6162 21.8787C13.4105 21.9817 13.2541 22.1621 13.1814 22.3804C13.1086 22.5986 13.1255 22.8368 13.2283 23.0426V23.0452L13.23 23.0469L13.2326 23.0521L13.2396 23.0651C13.2664 23.1169 13.2953 23.1676 13.3263 23.217C13.3828 23.3099 13.4652 23.4357 13.5746 23.5816C13.8713 23.9741 14.2163 24.3278 14.6013 24.6343C15.5577 25.3998 17.0488 26.1262 19.2116 26.1262C21.3753 26.1262 22.8654 25.3998 23.8219 24.6334C24.2068 24.3275 24.5517 23.9744 24.8486 23.5824C24.9635 23.4292 25.0688 23.2689 25.1636 23.1025L25.1741 23.0842L25.1836 23.0651L25.1905 23.0521L25.1931 23.0469L25.1949 23.0443V23.0426C25.2905 22.8382 25.3027 22.6047 25.2291 22.3915C25.1554 22.1783 25.0017 22.0021 24.8003 21.9003C24.599 21.7985 24.366 21.7791 24.1506 21.8462C23.9352 21.9133 23.7544 22.0616 23.6465 22.2597L23.6431 22.2658L23.6136 22.3162C23.566 22.3935 23.5148 22.4685 23.4599 22.5409C23.3141 22.7362 23.0781 23.0061 22.7379 23.2787C22.067 23.815 20.9535 24.3904 19.2116 24.3904C17.4697 24.3904 16.3562 23.815 15.6853 23.2795C15.4146 23.0645 15.1721 22.8164 14.9632 22.5409C14.8971 22.4529 14.8363 22.361 14.7809 22.2658L14.7775 22.2597C14.6734 22.0558 14.493 21.9012 14.2755 21.8297C14.058 21.7581 13.821 21.7755 13.6162 21.8779V21.8787Z" fill="white"/>
</svg>
