<svg width="39" height="39" viewBox="0 0 39 39" fill="none" xmlns="http://www.w3.org/2000/svg">
<circle cx="19.1973" cy="19.1973" r="17.2577" fill="#F84A24" stroke="#F84A24" stroke-width="3.87931"/>
<path fill-rule="evenodd" clip-rule="evenodd" d="M7.06104 19.4187C7.06104 16.1414 8.36292 12.9984 10.6803 10.681C12.9977 8.36365 16.1407 7.06177 19.4179 7.06177C22.6952 7.06177 25.8382 8.36365 28.1556 10.681C30.4729 12.9984 31.7748 16.1414 31.7748 19.4187C31.7748 22.6959 30.4729 25.8389 28.1556 28.1563C25.8382 30.4737 22.6952 31.7756 19.4179 31.7756C16.1407 31.7756 12.9977 30.4737 10.6803 28.1563C8.36292 25.8389 7.06104 22.6959 7.06104 19.4187ZM15.299 16.9473C14.844 17.4022 14.1063 17.4022 13.6514 16.9473C13.1964 16.4923 13.1964 15.7547 13.6514 15.2997C14.1063 14.8447 14.844 14.8447 15.299 15.2997C15.7539 15.7547 15.7539 16.4923 15.299 16.9473ZM25.1845 16.9473C24.7295 17.4022 23.9919 17.4022 23.5369 16.9473C23.0819 16.4923 23.0819 15.7547 23.5369 15.2997C23.9919 14.8447 24.7295 14.8447 25.1845 15.2997C25.6394 15.7547 25.6394 16.4923 25.1845 16.9473ZM13.6514 21.89C14.4276 21.89 15.299 21.89 15.299 21.89V24.3614C15.299 25.4538 15.7329 26.5015 16.5054 27.274C17.2778 28.0464 18.3255 28.4804 19.4179 28.4804C20.5103 28.4804 21.558 28.0464 22.3305 27.274C23.1029 26.5015 23.5369 25.4538 23.5369 24.3614V21.89C23.5369 21.89 24.3313 21.9342 25.1845 21.89C26.0377 21.8459 26.0965 20.2425 25.1845 20.2425C24.2724 20.2425 14.5046 20.1836 13.6514 20.2425C12.7982 20.3013 12.8752 21.89 13.6514 21.89Z" fill="white"/>
</svg>
