<svg width="40" height="40" viewBox="0 0 40 40" fill="none" xmlns="http://www.w3.org/2000/svg">
<circle cx="19.5108" cy="19.5108" r="17.5395" fill="#58CC63" stroke="#58CC63" stroke-width="3.94265"/>
<path fill-rule="evenodd" clip-rule="evenodd" d="M27.9933 25.0228C29.471 19.5085 25.9722 13.8131 20.2244 12.2732C13.7335 10.5323 4.52086 15.053 6.57031 20.8517C7.24969 22.7695 8.55749 23.2182 11.0245 23.2536L11.1788 23.2564C12.4823 23.272 12.8489 23.3569 12.9593 23.5353C13.139 23.8297 13.1419 24.2981 12.9395 25.5875C12.8432 26.1962 12.8121 26.4085 12.7753 26.7411C12.5502 28.7665 12.8928 30.346 14.219 31.7755C18.3632 36.2382 26.3246 31.2476 27.9933 25.0228ZM9.2397 19.9063C8.2079 16.9906 14.8106 13.7508 19.4912 15.0048C23.7614 16.1499 26.3218 20.3181 25.2589 24.2882C24.0728 28.7155 18.4906 32.2143 16.2939 29.8478C15.6145 29.1175 15.4461 28.3362 15.589 27.0525C15.6188 26.7779 15.6471 26.5882 15.7362 26.0249C16.0462 24.0476 16.042 23.1446 15.3711 22.0534C14.5304 20.6847 13.5311 20.454 11.2141 20.4243L11.0641 20.4214C9.69969 20.403 9.37558 20.2912 9.23828 19.9063H9.2397Z" fill="white"/>
<path d="M13.5281 19.4242C13.0589 19.4242 12.6089 19.2378 12.2771 18.906C11.9453 18.5742 11.7589 18.1242 11.7589 17.655C11.7589 17.1857 11.9453 16.7357 12.2771 16.4039C12.6089 16.0721 13.0589 15.8857 13.5281 15.8857C13.9973 15.8857 14.4474 16.0721 14.7791 16.4039C15.1109 16.7357 15.2973 17.1857 15.2973 17.655C15.2973 18.1242 15.1109 18.5742 14.7791 18.906C14.4474 19.2378 13.9973 19.4242 13.5281 19.4242Z" fill="white"/>
<path d="M18.8356 19.4242C18.3664 19.4242 17.9164 19.2378 17.5846 18.906C17.2528 18.5742 17.0664 18.1242 17.0664 17.655C17.0664 17.1857 17.2528 16.7357 17.5846 16.4039C17.9164 16.0721 18.3664 15.8857 18.8356 15.8857C19.3048 15.8857 19.7548 16.0721 20.0866 16.4039C20.4184 16.7357 20.6048 17.1857 20.6048 17.655C20.6048 18.1242 20.4184 18.5742 20.0866 18.906C19.7548 19.2378 19.3048 19.4242 18.8356 19.4242Z" fill="white"/>
<path d="M22.3743 23.6698C21.9051 23.6698 21.4551 23.4834 21.1233 23.1516C20.7915 22.8198 20.6051 22.3698 20.6051 21.9006C20.6051 21.4313 20.7915 20.9813 21.1233 20.6495C21.4551 20.3177 21.9051 20.1313 22.3743 20.1313C22.8435 20.1313 23.2935 20.3177 23.6253 20.6495C23.9571 20.9813 24.1435 21.4313 24.1435 21.9006C24.1435 22.3698 23.9571 22.8198 23.6253 23.1516C23.2935 23.4834 22.8435 23.6698 22.3743 23.6698Z" fill="white"/>
<path d="M20.2513 28.6239C19.782 28.6239 19.332 28.4375 19.0002 28.1057C18.6685 27.7739 18.4821 27.3239 18.4821 26.8547C18.4821 26.3854 18.6685 25.9354 19.0002 25.6036C19.332 25.2718 19.782 25.0854 20.2513 25.0854C20.7205 25.0854 21.1705 25.2718 21.5023 25.6036C21.8341 25.9354 22.0205 26.3854 22.0205 26.8547C22.0205 27.3239 21.8341 27.7739 21.5023 28.1057C21.1705 28.4375 20.7205 28.6239 20.2513 28.6239Z" fill="white"/>
<path d="M25.3747 10.3729C25.5425 10.2829 25.7267 10.2278 25.9164 10.2108C26.106 10.1937 26.2971 10.2151 26.4783 10.2736C26.6594 10.3322 26.8269 10.4267 26.9707 10.5515C27.1145 10.6762 27.2317 10.8287 27.3152 10.9999L33.1083 22.889C33.205 23.1027 33.2167 23.3452 33.141 23.5672C33.0653 23.7893 32.9079 23.9741 32.7008 24.0843C32.4937 24.1944 32.2524 24.2215 32.026 24.1601C31.7996 24.0987 31.6051 23.9534 31.482 23.7538L24.8184 12.3317C24.7227 12.1674 24.661 11.9854 24.6373 11.7967C24.6135 11.608 24.6281 11.4165 24.6802 11.2336C24.7323 11.0506 24.8208 10.8801 24.9403 10.7322C25.0599 10.5843 25.2081 10.4621 25.3761 10.3729H25.3747Z" fill="white"/>
<path fill-rule="evenodd" clip-rule="evenodd" d="M22.7804 10.2012C23.4697 11.4962 24.6289 11.8586 25.7498 11.2627C26.8694 10.6682 27.219 9.50339 26.5297 8.20833C25.7428 6.72502 24.0556 5.38042 22.9375 5.97346C21.8194 6.56792 21.992 8.71786 22.7818 10.2012H22.7804ZM24.0302 9.53595C23.7795 9.03269 23.6259 8.48676 23.5772 7.92667C23.5562 7.69252 23.5647 7.45665 23.6027 7.22465L23.6282 7.23739C23.699 7.27135 23.9183 7.37326 24.1986 7.59689C24.626 7.93799 25.0506 8.44045 25.2799 8.87214C25.6041 9.48075 25.5121 9.78647 25.0846 10.0143C24.66 10.2408 24.3543 10.1446 24.0302 9.53736V9.53595Z" fill="white"/>
</svg>
