<svg width="40" height="40" viewBox="0 0 40 40" fill="none" xmlns="http://www.w3.org/2000/svg">
<circle cx="19.5108" cy="19.5108" r="17.5395" fill="#58CC63" stroke="#58CC63" stroke-width="3.94265"/>
<path d="M27.4718 14.9131H11.9977C11.3139 14.9138 10.6583 15.1857 10.1748 15.6692C9.69132 16.1527 9.41938 16.8083 9.4187 17.4921V22.6501C9.41916 23.106 9.60045 23.543 9.92279 23.8654C10.2451 24.1877 10.6822 24.369 11.138 24.3695V30.3872C11.1385 30.843 11.3198 31.2801 11.6421 31.6024C11.9645 31.9248 12.4015 32.106 12.8574 32.1065H16.2961C16.7519 32.106 17.189 31.9248 17.5113 31.6024C17.8337 31.2801 18.015 30.843 18.0154 30.3872V20.0711C18.0154 18.8377 16.2656 18.8377 16.2961 20.0711C16.3265 21.3046 16.2961 30.3872 16.2961 30.3872H12.8574V22.6501H11.138V17.4921C11.138 17.2641 11.2286 17.0454 11.3898 16.8842C11.5511 16.723 11.7697 16.6324 11.9977 16.6324H27.4718C27.6998 16.6324 27.9184 16.723 28.0797 16.8842C28.2409 17.0454 28.3315 17.2641 28.3315 17.4921V22.6501H26.6121V30.3872H23.1734C23.1734 30.3872 23.0987 21.5288 23.1734 20.0711C23.2482 18.6134 21.4541 18.6134 21.4541 20.0711V30.3872C21.4545 30.843 21.6358 31.2801 21.9582 31.6024C22.2805 31.9248 22.7176 32.106 23.1734 32.1065H26.6121C27.068 32.106 27.505 31.9248 27.8274 31.6024C28.1497 31.2801 28.331 30.843 28.3315 30.3872V24.3695C28.7873 24.369 29.2244 24.1877 29.5467 23.8654C29.8691 23.543 30.0503 23.106 30.0508 22.6501V17.4921C30.0501 16.8083 29.7782 16.1527 29.2947 15.6692C28.8112 15.1857 28.1556 14.9138 27.4718 14.9131Z" fill="white"/>
<path d="M27.4718 14.9131H11.9977C11.3139 14.9138 10.6583 15.1857 10.1748 15.6692C9.69132 16.1527 9.41938 16.8083 9.4187 17.4921V22.6501C9.41916 23.106 9.60045 23.543 9.92279 23.8654C10.2451 24.1877 10.6822 24.369 11.138 24.3695V30.3872C11.1385 30.843 11.3198 31.2801 11.6421 31.6024C11.9645 31.9248 12.4015 32.106 12.8574 32.1065H16.2961C16.7519 32.106 17.189 31.9248 17.5113 31.6024C17.8337 31.2801 18.015 30.843 18.0154 30.3872V20.0711C18.0154 18.8377 16.2656 18.8377 16.2961 20.0711C16.3265 21.3046 16.2961 30.3872 16.2961 30.3872H12.8574V22.6501H11.138V17.4921C11.138 17.2641 11.2286 17.0454 11.3898 16.8842C11.5511 16.723 11.7697 16.6324 11.9977 16.6324H27.4718C27.6998 16.6324 27.9184 16.723 28.0797 16.8842C28.2409 17.0454 28.3315 17.2641 28.3315 17.4921V22.6501H26.6121V30.3872H23.1734C23.1734 30.3872 23.0987 21.5288 23.1734 20.0711C23.2482 18.6134 21.4541 18.6134 21.4541 20.0711V30.3872C21.4545 30.843 21.6358 31.2801 21.9582 31.6024C22.2805 31.9248 22.7176 32.106 23.1734 32.1065H26.6121C27.068 32.106 27.505 31.9248 27.8274 31.6024C28.1497 31.2801 28.331 30.843 28.3315 30.3872V24.3695C28.7873 24.369 29.2244 24.1877 29.5467 23.8654C29.8691 23.543 30.0503 23.106 30.0508 22.6501V17.4921C30.0501 16.8083 29.7782 16.1527 29.2947 15.6692C28.8112 15.1857 28.1556 14.9138 27.4718 14.9131Z" stroke="white"/>
<path d="M14.577 14.0531C13.8969 14.0531 13.232 13.8515 12.6666 13.4736C12.1011 13.0958 11.6603 12.5587 11.4001 11.9304C11.1398 11.3021 11.0717 10.6107 11.2044 9.94361C11.3371 9.27657 11.6646 8.66386 12.1455 8.18295C12.6264 7.70204 13.2391 7.37454 13.9061 7.24186C14.5732 7.10917 15.2646 7.17727 15.8929 7.43754C16.5213 7.6978 17.0583 8.13855 17.4362 8.70404C17.814 9.26952 18.0157 9.93436 18.0157 10.6145C18.0148 11.5262 17.6522 12.4003 17.0075 13.045C16.3628 13.6897 15.4887 14.0522 14.577 14.0531ZM14.577 8.89512C14.2369 8.89512 13.9045 8.99596 13.6218 9.18489C13.339 9.37381 13.1187 9.64233 12.9885 9.9565C12.8584 10.2707 12.8243 10.6164 12.8907 10.9499C12.957 11.2834 13.1208 11.5898 13.3612 11.8302C13.6017 12.0707 13.908 12.2344 14.2416 12.3008C14.5751 12.3671 14.9208 12.3331 15.235 12.2029C15.5491 12.0728 15.8176 11.8524 16.0066 11.5697C16.1955 11.2869 16.2963 10.9545 16.2963 10.6145C16.2959 10.1586 16.1146 9.72155 15.7922 9.39921C15.4699 9.07687 15.0328 8.89558 14.577 8.89512Z" fill="white"/>
<path d="M14.577 14.0531C13.8969 14.0531 13.232 13.8515 12.6666 13.4736C12.1011 13.0958 11.6603 12.5587 11.4001 11.9304C11.1398 11.3021 11.0717 10.6107 11.2044 9.94361C11.3371 9.27657 11.6646 8.66386 12.1455 8.18295C12.6264 7.70204 13.2391 7.37454 13.9061 7.24186C14.5732 7.10917 15.2646 7.17727 15.8929 7.43754C16.5213 7.6978 17.0583 8.13855 17.4362 8.70404C17.814 9.26952 18.0157 9.93436 18.0157 10.6145C18.0148 11.5262 17.6522 12.4003 17.0075 13.045C16.3628 13.6897 15.4887 14.0522 14.577 14.0531ZM14.577 8.89512C14.2369 8.89512 13.9045 8.99596 13.6218 9.18489C13.339 9.37381 13.1187 9.64233 12.9885 9.9565C12.8584 10.2707 12.8243 10.6164 12.8907 10.9499C12.957 11.2834 13.1208 11.5898 13.3612 11.8302C13.6017 12.0707 13.908 12.2344 14.2416 12.3008C14.5751 12.3671 14.9208 12.3331 15.235 12.2029C15.5491 12.0728 15.8176 11.8524 16.0066 11.5697C16.1955 11.2869 16.2963 10.9545 16.2963 10.6145C16.2959 10.1586 16.1146 9.72155 15.7922 9.39921C15.4699 9.07687 15.0328 8.89558 14.577 8.89512Z" stroke="white"/>
<path d="M24.8929 14.0531C24.2128 14.0531 23.548 13.8515 22.9825 13.4736C22.417 13.0958 21.9762 12.5587 21.716 11.9304C21.4557 11.3021 21.3876 10.6107 21.5203 9.94361C21.653 9.27657 21.9805 8.66386 22.4614 8.18295C22.9423 7.70204 23.555 7.37454 24.2221 7.24186C24.8891 7.10917 25.5805 7.17727 26.2088 7.43754C26.8372 7.6978 27.3742 8.13855 27.7521 8.70404C28.1299 9.26952 28.3316 9.93436 28.3316 10.6145C28.3307 11.5262 27.9681 12.4003 27.3234 13.045C26.6787 13.6897 25.8046 14.0522 24.8929 14.0531ZM24.8929 8.89512C24.5529 8.89512 24.2204 8.99596 23.9377 9.18489C23.6549 9.37381 23.4346 9.64233 23.3044 9.9565C23.1743 10.2707 23.1403 10.6164 23.2066 10.9499C23.2729 11.2834 23.4367 11.5898 23.6772 11.8302C23.9176 12.0707 24.224 12.2344 24.5575 12.3008C24.891 12.3671 25.2367 12.3331 25.5509 12.2029C25.865 12.0728 26.1336 11.8524 26.3225 11.5697C26.5114 11.2869 26.6123 10.9545 26.6123 10.6145C26.6118 10.1586 26.4305 9.72155 26.1082 9.39921C25.7858 9.07687 25.3488 8.89558 24.8929 8.89512Z" fill="white"/>
<path d="M24.8929 14.0531C24.2128 14.0531 23.548 13.8515 22.9825 13.4736C22.417 13.0958 21.9762 12.5587 21.716 11.9304C21.4557 11.3021 21.3876 10.6107 21.5203 9.94361C21.653 9.27657 21.9805 8.66386 22.4614 8.18295C22.9423 7.70204 23.555 7.37454 24.2221 7.24186C24.8891 7.10917 25.5805 7.17727 26.2088 7.43754C26.8372 7.6978 27.3742 8.13855 27.7521 8.70404C28.1299 9.26952 28.3316 9.93436 28.3316 10.6145C28.3307 11.5262 27.9681 12.4003 27.3234 13.045C26.6787 13.6897 25.8046 14.0522 24.8929 14.0531ZM24.8929 8.89512C24.5529 8.89512 24.2204 8.99596 23.9377 9.18489C23.6549 9.37381 23.4346 9.64233 23.3044 9.9565C23.1743 10.2707 23.1403 10.6164 23.2066 10.9499C23.2729 11.2834 23.4367 11.5898 23.6772 11.8302C23.9176 12.0707 24.224 12.2344 24.5575 12.3008C24.891 12.3671 25.2367 12.3331 25.5509 12.2029C25.865 12.0728 26.1336 11.8524 26.3225 11.5697C26.5114 11.2869 26.6123 10.9545 26.6123 10.6145C26.6118 10.1586 26.4305 9.72155 26.1082 9.39921C25.7858 9.07687 25.3488 8.89558 24.8929 8.89512Z" stroke="white"/>
</svg>
