<svg width="39" height="39" viewBox="0 0 39 39" fill="none" xmlns="http://www.w3.org/2000/svg">
<circle cx="19.0728" cy="19.0728" r="17.1458" fill="#FB991C" stroke="#FB991C" stroke-width="3.85415"/>
<path d="M19.0724 7.01465C16.6877 7.01465 14.3565 7.72181 12.3736 9.04671C10.3908 10.3716 8.84533 12.2547 7.93272 14.458C7.02012 16.6612 6.78134 19.0856 7.24658 21.4245C7.71182 23.7634 8.86019 25.9119 10.5465 27.5981C12.2327 29.2844 14.3812 30.4328 16.7201 30.898C19.0591 31.3633 21.4834 31.1245 23.6866 30.2119C25.8899 29.2993 27.773 27.7538 29.0979 25.771C30.4228 23.7881 31.13 21.4569 31.13 19.0722C31.13 15.8743 29.8596 12.8074 27.5984 10.5462C25.3372 8.28499 22.2703 7.01465 19.0724 7.01465ZM25.8548 16.2688C25.8548 16.5371 25.7752 16.7994 25.6262 17.0224C25.4771 17.2455 25.2653 17.4194 25.0174 17.522C24.7696 17.6247 24.4968 17.6516 24.2337 17.5992C23.9706 17.5469 23.7289 17.4177 23.5392 17.228C23.3494 17.0383 23.2203 16.7966 23.1679 16.5334C23.1156 16.2703 23.1424 15.9976 23.2451 15.7497C23.3478 15.5018 23.5216 15.29 23.7447 15.1409C23.9678 14.9919 24.23 14.9123 24.4983 14.9123C24.8581 14.9123 25.2031 15.0552 25.4575 15.3096C25.7119 15.564 25.8548 15.909 25.8548 16.2688ZM14.1364 17.6253C13.8681 17.6253 13.6058 17.5457 13.3828 17.3967C13.1597 17.2476 12.9858 17.0358 12.8832 16.7879C12.7805 16.54 12.7536 16.2673 12.806 16.0042C12.8583 15.741 12.9875 15.4993 13.1772 15.3096C13.3669 15.1199 13.6086 14.9907 13.8717 14.9384C14.1349 14.8861 14.4076 14.9129 14.6555 15.0156C14.9033 15.1183 15.1152 15.2921 15.2642 15.5152C15.4133 15.7383 15.4929 16.0005 15.4929 16.2688C15.4929 16.4495 15.4568 16.6284 15.3868 16.795C15.3167 16.9615 15.2141 17.1124 15.085 17.2388C14.9558 17.3652 14.8027 17.4644 14.6346 17.5308C14.4665 17.5972 14.2869 17.6293 14.1062 17.6253H14.1364ZM24.6867 23.2999C24.8066 23.4597 24.8581 23.6607 24.8299 23.8586C24.8016 24.0564 24.6959 24.235 24.536 24.3549C24.3761 24.4748 24.1751 24.5263 23.9773 24.498C23.7794 24.4698 23.6009 24.3641 23.481 24.2042C22.9837 23.5386 22.3362 23 21.5914 22.632C20.8465 22.2641 20.0252 22.0773 19.1945 22.0868C18.3637 22.0964 17.547 22.302 16.8108 22.687C16.0745 23.0719 15.4396 23.6253 14.9578 24.3021C14.8419 24.465 14.666 24.5752 14.4688 24.6084C14.2717 24.6416 14.0694 24.5952 13.9065 24.4792C13.7436 24.3633 13.6335 24.1874 13.6003 23.9903C13.567 23.7931 13.6135 23.5909 13.7294 23.428C14.3488 22.5579 15.1649 21.8464 16.1113 21.3514C17.0577 20.8563 18.1076 20.5918 19.1755 20.5793C20.2435 20.5669 21.2993 20.8068 22.257 21.2795C23.2147 21.7523 24.0472 22.4445 24.6867 23.2999Z" fill="white"/>
</svg>
