<svg width="38" height="38" viewBox="0 0 38 38" fill="none" xmlns="http://www.w3.org/2000/svg">
<circle cx="18.8655" cy="18.8655" r="16.9594" fill="#104F92" stroke="#104F92" stroke-width="3.81226"/>
<path d="M13.1395 10.3714C13.049 10.1467 13.0508 9.89535 13.1445 9.67195C13.2383 9.44854 13.4164 9.27103 13.6404 9.17788C13.7509 9.13177 13.8695 9.10815 13.9892 9.1084C14.109 9.10866 14.2274 9.13278 14.3377 9.17937C14.448 9.22595 14.5479 9.29405 14.6314 9.37968C14.715 9.46531 14.7806 9.56674 14.8244 9.67801L15.701 11.7695C15.7922 11.9928 15.792 12.2429 15.7005 12.4661C15.6089 12.6893 15.4333 12.8677 15.2114 12.963C15.0991 13.0075 14.9794 13.0306 14.8585 13.0312C14.6794 13.0288 14.5047 12.9751 14.3553 12.8763C14.2059 12.7776 14.0882 12.638 14.0161 12.4742L13.1395 10.3714ZM28.5425 18.6918C28.6634 18.6912 28.7831 18.6681 28.8954 18.6236L30.9902 17.7483C31.1016 17.7046 31.2032 17.6391 31.289 17.5557C31.3747 17.4722 31.4429 17.3725 31.4896 17.2624C31.5362 17.1523 31.5604 17.034 31.5607 16.9145C31.5609 16.7949 31.5373 16.6765 31.4911 16.5662C31.3978 16.3426 31.22 16.1647 30.9962 16.0711C30.7725 15.9775 30.5208 15.9757 30.2957 16.0661L28.1896 16.9413C27.9939 17.0215 27.8323 17.1673 27.7325 17.3535C27.6328 17.5397 27.601 17.7548 27.6428 17.9619C27.6845 18.169 27.7971 18.355 27.9613 18.4882C28.1255 18.6214 28.331 18.6934 28.5425 18.6918ZM22.5202 12.963C22.6325 13.0075 22.7522 13.0306 22.8731 13.0312C23.0523 13.0288 23.2269 12.9751 23.3763 12.8763C23.5257 12.7776 23.6435 12.638 23.7156 12.4742L24.5922 10.3714C24.6827 10.1467 24.6809 9.89535 24.5871 9.67195C24.4934 9.44854 24.3152 9.27103 24.0912 9.17788C23.9808 9.13177 23.8622 9.10815 23.7424 9.1084C23.6227 9.10866 23.5042 9.13278 23.3939 9.17937C23.2836 9.22595 23.1838 9.29405 23.1002 9.37968C23.0167 9.46531 22.9511 9.56674 22.9073 9.67801L22.0307 11.7695C21.9395 11.9928 21.9396 12.2429 22.0312 12.4661C22.1227 12.6893 22.2983 12.8677 22.5202 12.963ZM6.74148 17.7483L8.8362 18.6236C8.94854 18.6681 9.06824 18.6912 9.18912 18.6918C9.40065 18.6934 9.60614 18.6214 9.77032 18.4882C9.9345 18.355 10.0471 18.169 10.0889 17.9619C10.1306 17.7548 10.0989 17.5397 9.99909 17.3535C9.89931 17.1673 9.73771 17.0215 9.54203 16.9413L7.43592 16.0661C7.21085 15.9757 6.95916 15.9775 6.7354 16.0711C6.51165 16.1647 6.33386 16.3426 6.24057 16.5662C6.19438 16.6765 6.17072 16.7949 6.17098 16.9145C6.17123 17.034 6.1954 17.1523 6.24205 17.2624C6.28871 17.3725 6.35692 17.4722 6.44268 17.5557C6.52844 17.6391 6.63003 17.7046 6.74148 17.7483ZM31.6163 22.6928H26.5503C26.5866 22.391 26.6056 22.0874 26.6072 21.7835C26.6072 19.7335 25.7916 17.7676 24.3398 16.318C22.888 14.8685 20.919 14.0542 18.8658 14.0542C16.8127 14.0542 14.8436 14.8685 13.3919 16.318C11.9401 17.7676 11.1245 19.7335 11.1245 21.7835C11.126 22.0874 11.145 22.391 11.1814 22.6928H6.11534C5.87379 22.6928 5.64214 22.7886 5.47134 22.9592C5.30054 23.1297 5.20459 23.361 5.20459 23.6021C5.20459 23.8433 5.30054 24.0746 5.47134 24.2451C5.64214 24.4157 5.87379 24.5115 6.11534 24.5115H31.6163C31.8578 24.5115 32.0895 24.4157 32.2603 24.2451C32.4311 24.0746 32.5271 23.8433 32.5271 23.6021C32.5271 23.361 32.4311 23.1297 32.2603 22.9592C32.0895 22.7886 31.8578 22.6928 31.6163 22.6928ZM27.9733 27.2395H9.75833C9.51679 27.2395 9.28514 27.3353 9.11434 27.5058C8.94354 27.6763 8.84758 27.9076 8.84758 28.1488C8.84758 28.39 8.94354 28.6213 9.11434 28.7918C9.28514 28.9623 9.51679 29.0581 9.75833 29.0581H27.9733C28.2149 29.0581 28.4465 28.9623 28.6173 28.7918C28.7881 28.6213 28.8841 28.39 28.8841 28.1488C28.8841 27.9076 28.7881 27.6763 28.6173 27.5058C28.4465 27.3353 28.2149 27.2395 27.9733 27.2395Z" fill="white"/>
</svg>
