<svg width="38" height="38" viewBox="0 0 38 38" fill="none" xmlns="http://www.w3.org/2000/svg">
<circle cx="18.8655" cy="18.8655" r="16.9594" fill="#104F92" stroke="#104F92" stroke-width="3.81226"/>
<path d="M18.8658 6.07227C15.4726 6.07227 12.2184 7.42019 9.81913 9.8195C7.41982 12.2188 6.0719 15.473 6.0719 18.8661C6.0719 22.2593 7.41982 25.5134 9.81913 27.9127C12.2184 30.3121 15.4726 31.66 18.8658 31.66C22.2589 31.66 25.5131 30.3121 27.9124 27.9127C30.3117 25.5134 31.6596 22.2593 31.6596 18.8661C31.6596 15.473 30.3117 12.2188 27.9124 9.8195C25.5131 7.42019 22.2589 6.07227 18.8658 6.07227V6.07227ZM13.8346 14.3339C13.6838 14.4796 13.4818 14.5601 13.2721 14.5583C13.0625 14.5565 12.8619 14.4724 12.7137 14.3242C12.5654 14.1759 12.4813 13.9753 12.4795 13.7657C12.4777 13.556 12.5583 13.354 12.7039 13.2032C13.817 12.0902 15.92 12.0902 17.033 13.2032C17.183 13.3534 17.2671 13.5569 17.267 13.7691C17.2668 13.9813 17.1824 14.1848 17.0322 14.3347C16.8821 14.4846 16.6785 14.5688 16.4663 14.5686C16.2542 14.5685 16.0507 14.484 15.9008 14.3339C15.4178 13.8509 14.3159 13.8509 13.833 14.3339H13.8346ZM18.8658 26.8623C17.0986 26.8623 15.6673 25.0727 15.6673 22.8642C15.6673 20.6557 17.0986 18.8661 18.8658 18.8661C20.6329 18.8661 22.0642 20.6557 22.0642 22.8642C22.0642 25.0727 20.6329 26.8623 18.8658 26.8623ZM25.0292 14.3339C24.9551 14.4087 24.867 14.4682 24.7698 14.5087C24.6726 14.5493 24.5684 14.5702 24.4631 14.5702C24.3578 14.5702 24.2535 14.5493 24.1563 14.5087C24.0592 14.4682 23.971 14.4087 23.8969 14.3339C23.414 13.8509 22.3121 13.8509 21.8291 14.3339C21.6783 14.4796 21.4763 14.5601 21.2667 14.5583C21.057 14.5565 20.8565 14.4724 20.7082 14.3242C20.56 14.1759 20.4759 13.9753 20.474 13.7657C20.4722 13.556 20.5528 13.354 20.6985 13.2032C21.8115 12.0902 23.9145 12.0902 25.0276 13.2032C25.1775 13.3532 25.2617 13.5565 25.2617 13.7686C25.2617 13.9806 25.1775 14.1839 25.0276 14.3339H25.0292Z" fill="white"/>
</svg>
