<svg width="71" height="71" viewBox="0 0 71 71" fill="none" xmlns="http://www.w3.org/2000/svg">
<path d="M51.5786 36.2426C48.2017 27.467 36.1782 26.9938 39.0819 14.239C39.297 13.2926 38.2861 12.5613 37.4687 13.056C29.661 17.6589 24.0472 26.8862 28.7576 38.9742C29.1448 39.9636 27.9833 40.8885 27.1445 40.2433C23.2513 37.2965 22.8427 33.0593 23.1868 30.0265C23.3159 28.9081 21.8533 28.3703 21.2295 29.2952C19.7669 31.5322 18.2828 35.1457 18.2828 40.5874C19.1001 52.6324 29.2738 56.3319 32.9303 56.8051C38.157 57.4719 43.8139 56.504 47.879 52.783C52.3529 48.6317 53.9876 42.007 51.5786 36.2426ZM31.6183 47.0616C34.7156 46.3088 36.3072 44.0718 36.7374 42.093C37.4472 39.0173 34.6726 36.006 36.5438 31.145C37.2536 35.1672 43.5773 37.6837 43.5773 42.0715C43.7493 47.5133 37.8559 52.1807 31.6183 47.0616Z" fill="#1391ED"/>
<circle cx="35.0864" cy="35.0864" r="32.5864" stroke="#1391ED" stroke-width="5"/>
</svg>
