<svg width="71" height="71" viewBox="0 0 71 71" fill="none" xmlns="http://www.w3.org/2000/svg">
<path d="M20.9744 57.2576C20.4296 57.2567 19.901 57.0722 19.474 56.7339C19.047 56.3956 18.7466 55.9231 18.6212 55.393C18.4959 54.8628 18.5529 54.3059 18.7832 53.8121C19.0134 53.3184 19.4034 52.9167 19.8901 52.672C20.0837 52.5719 25.0066 49.9419 25.0066 43.5427C25.0066 40.1107 23.1284 37.6791 21.1406 35.1056C19.0753 32.432 16.939 29.6664 16.939 25.794C16.939 18.4218 20.7146 14.5623 20.8743 14.4009C21.3284 13.9571 21.9387 13.7095 22.5736 13.7114C23.2086 13.7134 23.8173 13.9648 24.2686 14.4115C24.7199 14.8581 24.9776 15.4642 24.9862 16.0991C24.9947 16.734 24.7535 17.3468 24.3144 17.8054C24.1772 17.9523 21.7795 20.5694 21.7795 25.794C21.7795 28.0142 23.2591 29.931 24.9711 32.148C27.1445 34.9587 29.8471 38.4585 29.8471 43.5427C29.8471 52.9963 22.3733 56.8429 22.0554 57.0026C21.7197 57.1703 21.3496 57.2575 20.9744 57.2576Z" fill="#1391ED"/>
<path d="M32.2691 57.2576C31.7243 57.2567 31.1957 57.0722 30.7687 56.7339C30.3417 56.3956 30.0413 55.9231 29.9159 55.393C29.7905 54.8628 29.8476 54.3059 30.0778 53.8121C30.3081 53.3184 30.6981 52.9167 31.1848 52.672C31.3784 52.5719 36.3012 49.9419 36.3012 43.5427C36.3012 40.1107 34.4231 37.6791 32.4352 35.1056C30.3699 32.432 28.2336 29.6664 28.2336 25.794C28.2336 18.4218 32.0093 14.5623 32.169 14.4009C32.6231 13.9571 33.2334 13.7095 33.8683 13.7114C34.5033 13.7134 35.112 13.9648 35.5633 14.4115C36.0146 14.8581 36.2723 15.4642 36.2808 16.0991C36.2894 16.734 36.0481 17.3468 35.609 17.8054C35.4719 17.9523 33.0742 20.5694 33.0742 25.794C33.0742 28.0142 34.5538 29.931 36.2657 32.148C38.4375 34.9587 41.1418 38.4585 41.1418 43.5427C41.1418 52.9963 33.668 56.8429 33.3501 57.0026C33.0144 57.1703 32.6443 57.2575 32.2691 57.2576Z" fill="#1391ED"/>
<path d="M43.5633 57.2576C43.0185 57.2567 42.4899 57.0722 42.0629 56.7339C41.636 56.3956 41.3355 55.9231 41.2102 55.393C41.0848 54.8628 41.1418 54.3059 41.3721 53.8121C41.6023 53.3184 41.9923 52.9167 42.479 52.672C42.6726 52.5719 47.5955 49.9419 47.5955 43.5427C47.5955 40.1107 45.7174 37.6791 43.7295 35.1056C41.6642 32.432 39.5279 29.6664 39.5279 25.794C39.5279 18.4218 43.3035 14.5623 43.4649 14.4009C43.9189 13.9571 44.5292 13.7095 45.1642 13.7114C45.7991 13.7134 46.4079 13.9648 46.8591 14.4115C47.3104 14.8581 47.5682 15.4642 47.5767 16.0991C47.5853 16.734 47.344 17.3468 46.9049 17.8054C46.7661 17.9523 44.3684 20.5694 44.3684 25.794C44.3684 28.0142 45.848 29.931 47.5616 32.148C49.7318 34.9587 52.436 38.4585 52.436 43.5427C52.436 52.9963 44.9622 56.8429 44.6444 57.0026C44.3086 57.17 43.9385 57.2573 43.5633 57.2576Z" fill="#1391ED"/>
<circle cx="35.0864" cy="35.0864" r="32.5864" stroke="#1391ED" stroke-width="5"/>
</svg>
