<svg width="71" height="71" viewBox="0 0 71 71" fill="none" xmlns="http://www.w3.org/2000/svg">
<path d="M49.6055 40.531C49.6055 40.531 53.6384 44.9067 53.6384 47.5886C53.6384 48.6582 53.2135 49.684 52.4572 50.4403C51.7009 51.1966 50.6751 51.6215 49.6055 51.6215C48.5359 51.6215 47.5101 51.1966 46.7538 50.4403C45.9975 49.684 45.5726 48.6582 45.5726 47.5886C45.5726 44.9067 49.6055 40.531 49.6055 40.531ZM21.3751 47.5886V29.4404C20.3055 29.4404 19.2797 29.0155 18.5234 28.2592C17.767 27.5029 17.3421 26.4771 17.3421 25.4075C17.3421 24.3379 17.767 23.3121 18.5234 22.5558C19.2797 21.7995 20.3055 21.3746 21.3751 21.3746V19.3581C21.3751 18.2885 21.8 17.2627 22.5563 16.5064C23.3126 15.7501 24.3384 15.3252 25.408 15.3252H29.4409C30.5105 15.3252 31.5363 15.7501 32.2926 16.5064C33.0489 17.2627 33.4738 18.2885 33.4738 19.3581V21.3746H49.6055C50.6751 21.3746 51.7009 21.7995 52.4572 22.5558C53.2135 23.3121 53.6384 24.3379 53.6384 25.4075V33.4733C54.1732 33.4733 54.6861 33.6858 55.0643 34.064C55.4425 34.4421 55.6549 34.955 55.6549 35.4898C55.6549 36.0246 55.4425 36.5375 55.0643 36.9157C54.6861 37.2938 54.1732 37.5063 53.6384 37.5063H45.5726C45.0378 37.5063 44.5249 37.2938 44.1467 36.9157C43.7686 36.5375 43.5561 36.0246 43.5561 35.4898C43.5561 34.955 43.7686 34.4421 44.1467 34.064C44.5249 33.6858 45.0378 33.4733 45.5726 33.4733V29.4404H33.4738V47.5886H35.4903C36.5599 47.5886 37.5857 48.0135 38.342 48.7698C39.0983 49.5261 39.5232 50.5519 39.5232 51.6215V55.6544H15.3257V51.6215C15.3257 50.5519 15.7506 49.5261 16.5069 48.7698C17.2632 48.0135 18.289 47.5886 19.3586 47.5886H21.3751Z" fill="#1391ED"/>
<circle cx="35.0864" cy="35.0864" r="32.5864" stroke="#1391ED" stroke-width="5"/>
</svg>
