<svg width="71" height="71" viewBox="0 0 71 71" fill="none" xmlns="http://www.w3.org/2000/svg">
<path d="M27.9919 44.5119C25.9903 44.4643 24.4176 42.7798 24.4176 40.7782V37.6558C24.4175 37.4934 24.3634 37.3356 24.2639 37.2072C24.1644 37.0788 24.025 36.9871 23.8678 36.9465C20.7747 36.1354 18.5522 33.3072 18.5522 29.8485C18.5546 28.1227 19.1646 26.453 20.2752 25.1321C21.3858 23.8112 22.926 22.9235 24.6257 22.6249C24.7805 22.5992 24.9229 22.5245 25.0322 22.4118C25.1414 22.2992 25.2115 22.1544 25.2324 21.9989C25.5342 19.7064 26.6592 17.6017 28.3977 16.0771C30.1363 14.5525 32.3697 13.7119 34.6821 13.7119C36.9944 13.7119 39.2279 14.5525 40.9664 16.0771C42.7049 17.6017 43.8299 19.7064 44.1318 21.9989C44.1526 22.1544 44.2228 22.2992 44.332 22.4118C44.4412 22.5245 44.5837 22.5992 44.7385 22.6249C46.5472 22.939 48.1723 23.9203 49.2925 25.3747C50.4127 26.8292 50.9465 28.6509 50.7884 30.4799C50.6302 32.3089 49.7917 34.0121 48.4385 35.2527C47.0854 36.4933 45.316 37.1811 43.4802 37.1802C41.8887 37.1726 40.3502 36.6081 39.1315 35.5846C39.004 35.4794 38.8445 35.4208 38.6792 35.4185C38.5139 35.4162 38.3528 35.4702 38.2224 35.5718C37.2138 36.369 35.9676 36.8061 34.6821 36.8136C34.0059 36.8085 33.3336 36.7105 32.6842 36.5222C32.5751 36.491 32.4602 36.4855 32.3486 36.5062C32.237 36.527 32.1318 36.5733 32.0412 36.6416C31.9506 36.71 31.877 36.7984 31.8264 36.9C31.7758 37.0015 31.7494 37.1135 31.7494 37.2269V40.8461C31.7495 41.3353 31.6518 41.8196 31.4618 42.2704C31.2719 42.7213 30.9936 43.1295 30.6435 43.4712C30.2933 43.8128 29.8783 44.0809 29.4229 44.2596C28.9675 44.4384 28.4809 44.5242 27.9919 44.5119Z" fill="#1391ED"/>
<path d="M35.3593 39.7189C35.1762 39.7329 35.0049 39.8151 34.8795 39.9494C34.7541 40.0836 34.6836 40.2601 34.6821 40.4438V40.8461C34.6802 42.2544 34.2285 43.6253 33.3928 44.7589C32.5572 45.8924 31.3812 46.7294 30.0365 47.1477C29.9391 47.1789 29.8494 47.2301 29.773 47.298C29.6965 47.3659 29.6352 47.4491 29.5928 47.5421C29.5504 47.6351 29.528 47.736 29.5269 47.8382C29.5258 47.9405 29.5461 48.0418 29.5865 48.1357L33.3358 56.8238C33.4492 57.0867 33.6372 57.3106 33.8764 57.4679C34.1157 57.6253 34.3957 57.7091 34.6821 57.7091C34.9688 57.7088 35.2492 57.6244 35.4885 57.4664C35.7277 57.3084 35.9155 57.0837 36.0284 56.8201L42.7901 41.0432C42.8344 40.9399 42.8543 40.8278 42.8484 40.7155C42.8425 40.6033 42.8108 40.4939 42.7559 40.3959C42.701 40.2978 42.6243 40.2137 42.5317 40.15C42.4391 40.0863 42.3331 40.0448 42.2218 40.0286C41.0706 39.8735 39.9563 39.5138 38.9317 38.9664C38.8317 38.913 38.7206 38.8836 38.6072 38.8804C38.4938 38.8772 38.3812 38.9004 38.2783 38.9481C37.3576 39.373 36.3698 39.6339 35.3593 39.7189Z" fill="#1391ED"/>
<circle cx="35.0864" cy="35.0864" r="32.5864" stroke="#1391ED" stroke-width="5"/>
</svg>
