<svg width="69" height="69" viewBox="0 0 69 69" fill="none" xmlns="http://www.w3.org/2000/svg">
<path d="M39.7601 20.7487C42.0213 20.7487 43.8544 18.9283 43.8544 16.6827C43.8544 14.4371 42.0213 12.6167 39.7601 12.6167C37.4988 12.6167 35.6658 14.4371 35.6658 16.6827C35.6658 18.9283 37.4988 20.7487 39.7601 20.7487ZM26.2566 39.5092L24.9942 42.4333H19.2886C17.7814 42.4333 16.5591 43.6472 16.5591 45.144C16.5591 46.6408 17.7814 47.8547 19.2886 47.8547H25.8949C27.5369 47.8547 29.0151 46.8856 29.6574 45.3905L30.4072 43.6523L29.497 43.1186C28.0197 42.252 26.933 40.9696 26.2566 39.5092ZM49.3134 31.5906H45.5578L43.3349 27.0799C42.2687 24.9156 40.3111 23.3332 38.0652 22.7648L32.0022 20.9741C29.5883 20.398 27.0746 20.9275 25.1068 22.426L21.723 25.002C20.5263 25.9126 20.2994 27.6135 21.218 28.802C22.1367 29.9905 23.8486 30.2132 25.0445 29.3035L28.43 26.7275C29.0842 26.2285 29.9176 26.0498 30.5854 26.2074L31.8393 26.5775L28.6441 33.9802C27.5676 36.4775 28.5323 39.4024 30.8874 40.7832L38.136 45.033L35.7929 52.4645C35.3425 53.8927 36.1434 55.4132 37.5816 55.8605C37.8537 55.9452 38.1283 55.9859 38.3987 55.9859C39.5596 55.9859 40.6361 55.243 41.002 54.0842L43.7008 45.5235C44.2049 43.7641 43.4543 41.8742 41.855 40.9162L36.6314 37.8548L39.302 31.2238L41.031 34.7333C41.7134 36.1174 43.1566 37.0111 44.7082 37.0111H49.3134C50.8206 37.0111 52.043 35.7972 52.043 34.3004C52.043 32.8036 50.8206 31.5906 49.3134 31.5906Z" fill="#58CC63"/>
<circle cx="34.3011" cy="34.3011" r="32.3298" stroke="#58CC63" stroke-width="3.94265"/>
</svg>
