<svg width="69" height="69" viewBox="0 0 69 69" fill="none" xmlns="http://www.w3.org/2000/svg">
<path fill-rule="evenodd" clip-rule="evenodd" d="M49.214 43.9926C51.8118 34.2982 45.6607 24.2853 35.5557 21.578C24.1444 18.5174 7.94806 26.465 11.5511 36.6596C12.7455 40.0312 15.0447 40.82 19.3818 40.8822L19.653 40.8872C21.9447 40.9146 22.5892 41.0639 22.7833 41.3774C23.0993 41.895 23.1043 42.7186 22.7485 44.9854C22.5793 46.0554 22.5245 46.4287 22.4598 47.0134C22.0642 50.5742 22.6664 53.3511 24.9979 55.8643C32.2836 63.7099 46.2803 54.9362 49.214 43.9926ZM16.244 34.9974C14.4301 29.8715 26.038 24.1758 34.2668 26.3804C41.774 28.3935 46.2753 35.7215 44.4066 42.7012C42.3214 50.4846 32.5076 56.6357 28.6457 52.4752C27.4514 51.1913 27.1552 49.8177 27.4066 47.5608C27.4588 47.0781 27.5086 46.7447 27.6653 45.7543C28.2103 42.2782 28.2028 40.6906 27.0234 38.7722C25.5453 36.366 23.7886 35.9604 19.7152 35.9081L19.4515 35.9031C17.0527 35.8708 16.4829 35.6742 16.2416 34.9974H16.244Z" fill="#58CC63"/>
<path d="M23.7833 34.149C22.9584 34.149 22.1673 33.8213 21.584 33.238C21.0007 32.6547 20.673 31.8635 20.673 31.0386C20.673 30.2137 21.0007 29.4225 21.584 28.8392C22.1673 28.2559 22.9584 27.9282 23.7833 27.9282C24.6083 27.9282 25.3994 28.2559 25.9827 28.8392C26.566 29.4225 26.8937 30.2137 26.8937 31.0386C26.8937 31.8635 26.566 32.6547 25.9827 33.238C25.3994 33.8213 24.6083 34.149 23.7833 34.149Z" fill="#58CC63"/>
<path d="M33.1142 34.149C32.2893 34.149 31.4981 33.8213 30.9148 33.238C30.3315 32.6547 30.0038 31.8635 30.0038 31.0386C30.0038 30.2137 30.3315 29.4225 30.9148 28.8392C31.4981 28.2559 32.2893 27.9282 33.1142 27.9282C33.9391 27.9282 34.7302 28.2559 35.3136 28.8392C35.8969 29.4225 36.2246 30.2137 36.2246 31.0386C36.2246 31.8635 35.8969 32.6547 35.3136 33.238C34.7302 33.8213 33.9391 34.149 33.1142 34.149Z" fill="#58CC63"/>
<path d="M39.3355 41.6138C38.5106 41.6138 37.7195 41.2861 37.1362 40.7028C36.5529 40.1195 36.2252 39.3284 36.2252 38.5034C36.2252 37.6785 36.5529 36.8874 37.1362 36.3041C37.7195 35.7208 38.5106 35.3931 39.3355 35.3931C40.1605 35.3931 40.9516 35.7208 41.5349 36.3041C42.1182 36.8874 42.4459 37.6785 42.4459 38.5034C42.4459 39.3284 42.1182 40.1195 41.5349 40.7028C40.9516 41.2861 40.1605 41.6138 39.3355 41.6138Z" fill="#58CC63"/>
<path d="M35.6031 50.3228C34.7782 50.3228 33.9871 49.9951 33.4037 49.4118C32.8204 48.8285 32.4927 48.0373 32.4927 47.2124C32.4927 46.3875 32.8204 45.5964 33.4037 45.0131C33.9871 44.4298 34.7782 44.1021 35.6031 44.1021C36.428 44.1021 37.2192 44.4298 37.8025 45.0131C38.3858 45.5964 38.7135 46.3875 38.7135 47.2124C38.7135 48.0373 38.3858 48.8285 37.8025 49.4118C37.2192 49.9951 36.428 50.3228 35.6031 50.3228Z" fill="#58CC63"/>
<path d="M44.6103 18.2366C44.9053 18.0785 45.2292 17.9816 45.5626 17.9516C45.8959 17.9217 46.2319 17.9593 46.5504 18.0622C46.8689 18.1651 47.1634 18.3312 47.4162 18.5506C47.669 18.77 47.875 19.0381 48.0217 19.3389L58.2063 40.2406C58.3764 40.6163 58.397 41.0427 58.2639 41.4331C58.1308 41.8234 57.8541 42.1484 57.49 42.342C57.1259 42.5357 56.7017 42.5834 56.3037 42.4754C55.9057 42.3675 55.5637 42.112 55.3473 41.761L43.6324 21.6804C43.4639 21.3915 43.3556 21.0716 43.3139 20.7399C43.2721 20.4081 43.2977 20.0714 43.3893 19.7498C43.4809 19.4282 43.6364 19.1284 43.8466 18.8684C44.0569 18.6083 44.3174 18.3935 44.6127 18.2366H44.6103Z" fill="#58CC63"/>
<path fill-rule="evenodd" clip-rule="evenodd" d="M40.0494 17.9354C41.2612 20.2122 43.2991 20.8492 45.2698 19.8016C47.2381 18.7565 47.8527 16.7086 46.6409 14.4318C45.2574 11.8241 42.2913 9.46021 40.3256 10.5028C38.3598 11.5479 38.6634 15.3276 40.0519 17.9354H40.0494ZM42.2465 16.7659C41.8059 15.8811 41.5358 14.9213 41.4503 13.9367C41.4132 13.525 41.4283 13.1103 41.4951 12.7025L41.5399 12.7249C41.6643 12.7846 42.05 12.9637 42.5426 13.3569C43.2941 13.9566 44.0406 14.8399 44.4437 15.5988C45.0135 16.6688 44.8518 17.2063 44.1003 17.6069C43.3538 18.005 42.8164 17.8358 42.2465 16.7683V16.7659Z" fill="#58CC63"/>
<circle cx="34.3011" cy="34.3011" r="32.3298" stroke="#58CC63" stroke-width="3.94265"/>
</svg>
