<svg width="69" height="69" viewBox="0 0 69 69" fill="none" xmlns="http://www.w3.org/2000/svg">
<path d="M48.2969 26.2183H21.0926C19.8905 26.2195 18.738 26.6975 17.8879 27.5476C17.0379 28.3976 16.5598 29.5502 16.5586 30.7523V39.8204C16.5594 40.6218 16.8781 41.3902 17.4448 41.9569C18.0115 42.5236 18.7799 42.8423 19.5813 42.8431V53.4226C19.5821 54.224 19.9008 54.9924 20.4675 55.5591C21.0342 56.1257 21.8026 56.4445 22.604 56.4453H28.6494C29.4508 56.4445 30.2192 56.1257 30.7859 55.5591C31.3526 54.9924 31.6713 54.224 31.6721 53.4226C31.6721 53.4226 31.6721 37.4548 31.6721 35.2864C31.6721 33.1179 28.5959 33.1179 28.6494 35.2864C28.7029 37.4548 28.6494 53.4226 28.6494 53.4226H22.604V39.8204H19.5813V30.7523C19.5813 30.3515 19.7405 29.9671 20.024 29.6836C20.3074 29.4002 20.6918 29.241 21.0926 29.241H48.2969C48.6978 29.241 49.0822 29.4002 49.3656 29.6836C49.6491 29.9671 49.8083 30.3515 49.8083 30.7523V39.8204H46.7856V53.4226H40.7402C40.7402 53.4226 40.6088 37.8491 40.7402 35.2864C40.8716 32.7236 37.7175 32.7236 37.7175 35.2864C37.7175 37.8491 37.7175 53.4226 37.7175 53.4226C37.7183 54.224 38.037 54.9924 38.6037 55.5591C39.1704 56.1257 39.9388 56.4445 40.7402 56.4453H46.7856C47.587 56.4445 48.3554 56.1257 48.9221 55.5591C49.4888 54.9924 49.8075 54.224 49.8083 53.4226V42.8431C50.6097 42.8423 51.3781 42.5236 51.9448 41.9569C52.5115 41.3902 52.8302 40.6218 52.831 39.8204V30.7523C52.8298 29.5502 52.3517 28.3976 51.5017 27.5476C50.6516 26.6975 49.4991 26.2195 48.2969 26.2183Z" fill="#58CC63"/>
<path d="M25.6272 24.707C24.4315 24.707 23.2627 24.3525 22.2685 23.6882C21.2744 23.0239 20.4995 22.0797 20.0419 20.9751C19.5844 19.8704 19.4647 18.6549 19.6979 17.4822C19.9312 16.3095 20.507 15.2323 21.3524 14.3869C22.1979 13.5414 23.2751 12.9656 24.4478 12.7324C25.6205 12.4991 26.836 12.6188 27.9406 13.0764C29.0453 13.534 29.9894 14.3088 30.6537 15.303C31.318 16.2971 31.6726 17.4659 31.6726 18.6616C31.671 20.2645 31.0335 21.8012 29.9001 22.9346C28.7667 24.068 27.23 24.7054 25.6272 24.707ZM25.6272 15.6389C25.0293 15.6389 24.4449 15.8162 23.9478 16.1483C23.4508 16.4805 23.0633 16.9526 22.8345 17.5049C22.6058 18.0572 22.5459 18.665 22.6625 19.2513C22.7792 19.8377 23.0671 20.3763 23.4898 20.799C23.9125 21.2217 24.4511 21.5096 25.0375 21.6262C25.6238 21.7429 26.2316 21.683 26.7839 21.4542C27.3362 21.2254 27.8083 20.838 28.1404 20.3409C28.4726 19.8439 28.6499 19.2594 28.6499 18.6616C28.6491 17.8602 28.3303 17.0918 27.7636 16.5251C27.197 15.9584 26.4286 15.6397 25.6272 15.6389Z" fill="#58CC63"/>
<path d="M43.7632 24.707C42.5676 24.707 41.3988 24.3525 40.4046 23.6882C39.4104 23.0239 38.6356 22.0797 38.178 20.9751C37.7205 19.8704 37.6007 18.6549 37.834 17.4822C38.0673 16.3095 38.643 15.2323 39.4885 14.3869C40.334 13.5414 41.4111 12.9656 42.5838 12.7324C43.7565 12.4991 44.9721 12.6188 46.0767 13.0764C47.1814 13.534 48.1255 14.3088 48.7898 15.303C49.4541 16.2971 49.8086 17.4659 49.8086 18.6616C49.807 20.2645 49.1696 21.8012 48.0362 22.9346C46.9028 24.068 45.3661 24.7054 43.7632 24.707ZM43.7632 15.6389C43.1654 15.6389 42.581 15.8162 42.0839 16.1483C41.5868 16.4805 41.1994 16.9526 40.9706 17.5049C40.7418 18.0572 40.682 18.665 40.7986 19.2513C40.9152 19.8377 41.2031 20.3763 41.6259 20.799C42.0486 21.2217 42.5872 21.5096 43.1735 21.6262C43.7599 21.7429 44.3677 21.683 44.92 21.4542C45.4723 21.2254 45.9444 20.838 46.2765 20.3409C46.6087 19.8439 46.7859 19.2594 46.7859 18.6616C46.7851 17.8602 46.4664 17.0918 45.8997 16.5251C45.333 15.9584 44.5647 15.6397 43.7632 15.6389Z" fill="#58CC63"/>
<circle cx="34.3011" cy="34.3011" r="32.3298" stroke="#58CC63" stroke-width="3.94265"/>
</svg>
