<svg width="69" height="69" viewBox="0 0 69 69" fill="none" xmlns="http://www.w3.org/2000/svg">
<path d="M34.6947 16.5593C37.2232 16.5593 39.2506 18.577 39.2506 21.0934C39.2506 23.6098 37.2232 25.6274 34.6947 25.6274C32.1661 25.6274 30.1387 23.6098 30.1387 21.0934C30.1387 18.577 32.1889 16.5593 34.6947 16.5593ZM52.7772 43.7636C57.7772 43.7636 57.8799 39.2296 52.7772 39.2296C47.6745 39.2296 45.7201 37.0532 42.4398 33.1539L39.3873 29.5267C38.9635 29.0154 38.4311 28.6039 37.8285 28.3217C37.2259 28.0395 36.568 27.8936 35.902 27.8945H33.5557C32.1661 27.8945 30.8904 28.4839 30.0248 29.5267L26.9723 33.1539C23.6693 37.0532 21.8799 39.2296 16.7772 39.2296C11.6745 39.2296 11.7773 43.7636 16.7772 43.7636C21.7771 43.7636 26.0156 41.1112 30.1387 36.3958V41.4966L21.3002 45.0105C19.7739 45.6226 18.7488 47.1642 18.7488 48.7738C18.7488 51.0181 20.5712 52.8317 22.8264 52.8317H27.8607V51.6982C27.8607 50.1951 28.4607 48.7535 29.5287 47.6906C30.5968 46.6278 32.0453 46.0307 33.5557 46.0307H40.3896C41.0274 46.0307 41.5286 46.5294 41.5286 47.1642C41.5286 47.7989 41.0274 48.2977 40.3896 48.2977H33.5557C31.665 48.2977 30.1387 49.8166 30.1387 51.6982V52.8317H46.5629C48.8181 52.8317 50.6405 51.0181 50.6405 48.7738C50.6405 47.1642 49.6154 45.6226 48.0892 45.0105L39.2506 41.4966V36.3958C43.3738 41.1112 47.7772 43.7636 52.7772 43.7636Z" fill="#58CC63"/>
<circle cx="34.3011" cy="34.3011" r="32.3298" stroke="#58CC63" stroke-width="3.94265"/>
</svg>
