<svg width="67" height="68" viewBox="0 0 67 68" fill="#104F92" xmlns="http://www.w3.org/2000/svg">
<circle cx="33.1666" cy="33.9288" r="31.2605" stroke="#104F92" stroke-width="3.81226"/>
<path d="M26.2775 15.249C25.6531 17.1879 25.336 19.2125 25.3379 21.2494C25.3379 32.036 34.0824 40.7805 44.869 40.7805C47.6196 40.7805 50.2368 40.212 52.6098 39.1855C50.0784 47.0381 42.7119 52.7162 34.0184 52.7162C23.2318 52.7162 14.4872 43.9717 14.4872 33.1851C14.4872 25.148 19.3407 18.246 26.2775 15.249V15.249Z" stroke="#ffffff" stroke-width="3.04981" stroke-linejoin="round"/>
<path d="M42.3296 17.9941H52.4641L41.6134 26.6746H52.4641" stroke="#ffffff" stroke-width="3.04981" stroke-linecap="round" stroke-linejoin="round"/>
<path d="M51.0848 40.4098C29.1262 45.2895 23.6364 25.7961 24.7801 16.3926C15.7578 22.4922 8.00628 32.7853 21.7304 48.4155C31.4378 59.4711 48.7974 47.526 51.0848 40.4098Z" fill="#ffffff"/>
</svg>
