<svg width="67" height="67" viewBox="0 0 67 67" fill="none" xmlns="http://www.w3.org/2000/svg">
<path d="M23.5755 18.2319C23.4163 17.8368 23.4195 17.395 23.5843 17.0022C23.7492 16.6095 24.0624 16.2974 24.4561 16.1336C24.6503 16.0526 24.8588 16.011 25.0694 16.0115C25.2799 16.0119 25.4882 16.0543 25.6821 16.1362C25.8759 16.2181 26.0515 16.3379 26.1984 16.4884C26.3453 16.6389 26.4606 16.8173 26.5376 17.0129L28.0787 20.6898C28.2391 21.0824 28.2388 21.5221 28.0778 21.9145C27.9169 22.3069 27.6082 22.6205 27.2181 22.788C27.0206 22.8663 26.8102 22.907 26.5977 22.9079C26.2827 22.9038 25.9756 22.8093 25.713 22.6357C25.4504 22.4621 25.2433 22.2167 25.1166 21.9288L23.5755 18.2319ZM50.6549 32.8596C50.8674 32.8586 51.0779 32.818 51.2754 32.7397L54.958 31.201C55.1539 31.1241 55.3325 31.009 55.4833 30.8623C55.6341 30.7156 55.754 30.5403 55.836 30.3467C55.918 30.1532 55.9605 29.9452 55.961 29.735C55.9614 29.5248 55.9198 29.3166 55.8386 29.1227C55.6746 28.7296 55.3621 28.4169 54.9687 28.2523C54.5753 28.0877 54.1328 28.0845 53.7371 28.2434L50.0345 29.7822C49.6905 29.9232 49.4063 30.1794 49.2309 30.5069C49.0555 30.8343 48.9997 31.2124 49.0731 31.5764C49.1465 31.9405 49.3445 32.2676 49.6331 32.5017C49.9218 32.7359 50.283 32.8624 50.6549 32.8596ZM40.0673 22.788C40.2648 22.8663 40.4753 22.907 40.6878 22.9079C41.0027 22.9038 41.3098 22.8093 41.5724 22.6357C41.8351 22.4621 42.0421 22.2167 42.1688 21.9288L43.7099 18.2319C43.8691 17.8368 43.8659 17.395 43.7011 17.0022C43.5362 16.6095 43.223 16.2974 42.8293 16.1336C42.6351 16.0526 42.4266 16.011 42.2161 16.0115C42.0056 16.0119 41.7973 16.0543 41.6034 16.1362C41.4095 16.2181 41.2339 16.3379 41.087 16.4884C40.9401 16.6389 40.8248 16.8173 40.7478 17.0129L39.2067 20.6898C39.0463 21.0824 39.0466 21.5221 39.2076 21.9145C39.3685 22.3069 39.6772 22.6205 40.0673 22.788ZM12.3274 31.201L16.0101 32.7397C16.2076 32.818 16.418 32.8586 16.6305 32.8596C17.0024 32.8624 17.3637 32.7359 17.6523 32.5017C17.9409 32.2676 18.139 31.9405 18.2123 31.5764C18.2857 31.2124 18.2299 30.8343 18.0545 30.5069C17.8791 30.1794 17.595 29.9232 17.251 29.7822L13.5483 28.2434C13.1526 28.0845 12.7101 28.0877 12.3167 28.2523C11.9234 28.4169 11.6108 28.7296 11.4468 29.1227C11.3656 29.3166 11.324 29.5248 11.3245 29.735C11.3249 29.9452 11.3674 30.1532 11.4494 30.3467C11.5314 30.5403 11.6514 30.7156 11.8021 30.8623C11.9529 31.009 12.1315 31.1241 12.3274 31.201ZM56.0588 39.8937H47.1524C47.2163 39.3631 47.2497 38.8294 47.2525 38.295C47.2525 34.6911 45.8186 31.2348 43.2663 28.6864C40.7139 26.1381 37.2522 24.7064 33.6427 24.7064C30.0332 24.7064 26.5715 26.1381 24.0192 28.6864C21.4668 31.2348 20.033 34.6911 20.033 38.295C20.0357 38.8294 20.0692 39.3631 20.133 39.8937H11.2266C10.802 39.8937 10.3947 40.0621 10.0945 40.3619C9.79418 40.6617 9.62549 41.0683 9.62549 41.4923C9.62549 41.9163 9.79418 42.3229 10.0945 42.6227C10.3947 42.9225 10.802 43.091 11.2266 43.091H56.0588C56.4834 43.091 56.8907 42.9225 57.191 42.6227C57.4912 42.3229 57.6599 41.9163 57.6599 41.4923C57.6599 41.0683 57.4912 40.6617 57.191 40.3619C56.8907 40.0621 56.4834 39.8937 56.0588 39.8937ZM49.6542 47.8869H17.6312C17.2066 47.8869 16.7993 48.0554 16.499 48.3552C16.1988 48.655 16.0301 49.0616 16.0301 49.4856C16.0301 49.9096 16.1988 50.3162 16.499 50.616C16.7993 50.9158 17.2066 51.0842 17.6312 51.0842H49.6542C50.0788 51.0842 50.4861 50.9158 50.7864 50.616C51.0867 50.3162 51.2553 49.9096 51.2553 49.4856C51.2553 49.0616 51.0867 48.655 50.7864 48.3552C50.4861 48.0554 50.0788 47.8869 49.6542 47.8869Z" fill="#104F92"/>
<circle cx="33.6422" cy="33.1666" r="31.2605" stroke="#104F92" stroke-width="3.81226"/>
</svg>
