<svg width="67" height="67" viewBox="0 0 67 67" fill="#104F92" xmlns="http://www.w3.org/2000/svg">
<circle cx="33.6422" cy="33.1666" r="31.2605" stroke="#104F92" stroke-width="3.81226"/>
<path d="M33.7571 11C21.4484 11 11.4756 20.9728 11.4756 33.2815C11.4756 45.5902 21.4484 55.563 33.7571 55.563C46.0658 55.563 56.0386 45.5902 56.0386 33.2815C56.0386 20.9728 46.0658 11 33.7571 11ZM36.7938 28.0435L43.9814 23.731C45.0236 23.1111 46.1377 24.4228 45.365 25.3482L42.3462 28.9689L45.365 32.5897C46.1467 33.5241 45.0146 34.8178 43.9814 34.2069L36.7938 29.8943C36.102 29.4721 36.102 28.4658 36.7938 28.0435ZM22.1491 25.3482C21.3765 24.4228 22.4906 23.1111 23.5327 23.731L30.7203 28.0435C31.4211 28.4658 31.4211 29.4721 30.7203 29.8943L23.5327 34.2069C22.4995 34.8178 21.3765 33.5241 22.1491 32.5897L25.1679 28.9689L22.1491 25.3482ZM33.7571 36.1565C38.42 36.1565 44.1162 40.0917 44.826 45.743C44.9787 46.9648 44.1072 47.9531 43.2357 47.5758C40.9087 46.5785 37.4497 46.0125 33.7571 46.0125C30.0645 46.0125 26.6054 46.5785 24.2785 47.5758C23.398 47.9531 22.5355 46.9469 22.6882 45.743C23.398 40.0917 29.0941 36.1565 33.7571 36.1565Z" fill="#ffffff"/>
</svg>
