<svg width="67" height="67" viewBox="0 0 67 67" fill="#104F92" xmlns="http://www.w3.org/2000/svg">
<circle cx="33.6422" cy="33.1666" r="31.2605" stroke="#104F92" stroke-width="3.81226"/>
<path d="M33.6427 10.6743C27.6774 10.6743 21.9564 13.044 17.7382 17.2622C13.5201 21.4803 11.1504 27.2013 11.1504 33.1666C11.1504 39.132 13.5201 44.853 17.7382 49.0711C21.9564 53.2892 27.6774 55.659 33.6427 55.659C39.608 55.659 45.3291 53.2892 49.5472 49.0711C53.7653 44.853 56.135 39.132 56.135 33.1666C56.135 27.2013 53.7653 21.4803 49.5472 17.2622C45.3291 13.044 39.608 10.6743 33.6427 10.6743V10.6743ZM24.7976 25.1987C24.5325 25.4548 24.1774 25.5965 23.8088 25.5933C23.4402 25.5901 23.0876 25.4423 22.827 25.1816C22.5663 24.921 22.4185 24.5684 22.4153 24.1998C22.4121 23.8312 22.5538 23.4761 22.8098 23.211C24.7667 21.2541 28.4639 21.2541 30.4207 23.211C30.6843 23.4749 30.8322 23.8328 30.832 24.2058C30.8317 24.5789 30.6832 24.9365 30.4193 25.2001C30.1553 25.4637 29.7975 25.6117 29.4244 25.6114C29.0514 25.6111 28.6937 25.4627 28.4301 25.1987C27.581 24.3496 25.6439 24.3496 24.7948 25.1987H24.7976ZM33.6427 47.2243C30.536 47.2243 28.0196 44.0782 28.0196 40.1955C28.0196 36.3128 30.536 33.1666 33.6427 33.1666C36.7495 33.1666 39.2658 36.3128 39.2658 40.1955C39.2658 44.0782 36.7495 47.2243 33.6427 47.2243ZM44.4784 25.1987C44.3482 25.3303 44.1932 25.4348 44.0223 25.5061C43.8515 25.5774 43.6682 25.6141 43.4831 25.6141C43.298 25.6141 43.1147 25.5774 42.9439 25.5061C42.773 25.4348 42.618 25.3303 42.4878 25.1987C41.6387 24.3496 39.7016 24.3496 38.8525 25.1987C38.5874 25.4548 38.2323 25.5965 37.8637 25.5933C37.4951 25.5901 37.1425 25.4423 36.8819 25.1816C36.6212 24.921 36.4734 24.5684 36.4702 24.1998C36.467 23.8312 36.6087 23.4761 36.8647 23.211C38.8216 21.2541 42.5187 21.2541 44.4756 23.211C44.7391 23.4746 44.8872 23.8321 44.8872 24.2049C44.8872 24.5776 44.7391 24.9351 44.4756 25.1987H44.4784Z" fill="#ffffff"/>
</svg>
