<svg width="68" height="68" viewBox="0 0 68 68" fill="none" xmlns="http://www.w3.org/2000/svg">
<path d="M15.7696 30.4465C14.6173 31.5416 13.9644 33.0401 13.9644 34.6347V46.2194C13.9644 49.4086 16.5378 51.983 19.7259 51.983H45.9985C47.2469 51.983 48.3992 51.08 48.5336 49.8313C48.6873 48.3904 47.5542 47.18 46.1522 47.18H36.0503C35.5125 47.18 35.09 46.7574 35.09 46.2194C35.09 45.6815 35.5125 45.2588 36.0503 45.2588H49.8396C51.0879 45.2588 52.2402 44.3559 52.3747 43.1071C52.5283 41.6662 51.3952 40.4559 49.9932 40.4559H36.0503C35.5125 40.4559 35.09 40.0332 35.09 39.4953C35.09 38.9574 35.5125 38.5347 36.0503 38.5347H51.7601C53.0084 38.5347 54.1607 37.6318 54.2952 36.383C54.4488 34.9421 53.3157 33.7318 51.9137 33.7318H36.0503C35.5125 33.7318 35.09 33.3091 35.09 32.7712C35.09 32.2332 35.5125 31.8106 36.0503 31.8106H47.9191C49.1674 31.8106 50.3197 30.9076 50.4541 29.6589C50.6078 28.218 49.4747 27.0076 48.0727 27.0076H29.0596L31.9212 21.9933C32.1332 21.6244 32.2249 21.1985 32.1836 20.775C32.1423 20.3514 31.97 19.9513 31.6907 19.6303L30.8841 18.7658C30.1543 18.0165 28.9444 17.9781 28.1762 18.7081L15.7696 30.4465ZM44.6734 23.2998C44.6734 24.2988 43.8668 25.0864 42.8873 25.0864C41.8886 25.0864 41.1012 24.2796 41.1012 23.2998C41.1588 22.0126 40.6787 20.7446 39.7377 19.7264L39.6032 19.6111C37.8748 17.9012 36.9529 15.7111 37.0297 13.4249C37.0272 13.1912 37.071 12.9593 37.1587 12.7426C37.2463 12.5259 37.3761 12.3288 37.5404 12.1626C37.7047 11.9965 37.9004 11.8646 38.116 11.7745C38.3316 11.6845 38.563 11.6382 38.7966 11.6382C39.7761 11.6382 40.5827 12.4451 40.5827 13.4249C40.5251 14.7121 41.0052 15.9801 41.9463 16.9983L42.0807 17.1328C43.8284 18.8234 44.7502 21.0135 44.6734 23.2998ZM52.3747 23.2998C52.3747 24.2796 51.568 25.0864 50.5694 25.0864C49.5707 25.0864 48.7833 24.2796 48.7833 23.2998C48.8409 22.0126 48.3608 20.7446 47.4197 19.7264L47.2853 19.6111C45.5568 17.9012 44.635 15.7111 44.7118 13.4249C44.7118 12.4451 45.5184 11.6382 46.4979 11.6382C47.4773 11.6382 48.284 12.4451 48.284 13.4249C48.2263 14.7121 48.7065 15.9801 49.6475 16.9983L49.782 17.1328C51.5104 18.8234 52.4323 21.0135 52.3747 23.2998Z" fill="#F84A24"/>
<circle cx="33.75" cy="33.75" r="31.8103" stroke="#F84A24" stroke-width="3.87931"/>
</svg>
