<svg width="68" height="68" viewBox="0 0 68 68" fill="#F84A24" xmlns="http://www.w3.org/2000/svg">
<circle cx="33.75" cy="33.75" r="31.8103" stroke="#F84A24" stroke-width="3.87931"/>
<path d="M35.2344 25.6839C35.1109 25.5604 34.9643 25.4624 34.803 25.3956C34.6416 25.3287 34.4687 25.2943 34.294 25.2943C34.1194 25.2943 33.9465 25.3287 33.7851 25.3956C33.6237 25.4624 33.4771 25.5604 33.3537 25.6839L25.5962 33.4413C25.4727 33.5648 25.3747 33.7114 25.3079 33.8728C25.241 34.0341 25.2066 34.2071 25.2066 34.3817C25.2066 34.5564 25.241 34.7293 25.3079 34.8907C25.3747 35.052 25.4727 35.1986 25.5962 35.3221L32.1785 41.9044C32.302 42.0279 32.4486 42.1259 32.6099 42.1927C32.7713 42.2596 32.9442 42.294 33.1189 42.294C33.2935 42.294 33.4665 42.2596 33.6278 42.1927C33.7892 42.1259 33.9358 42.0279 34.0593 41.9044L41.8167 34.1469C41.9402 34.0234 42.0382 33.8768 42.105 33.7155C42.1719 33.5541 42.2063 33.3812 42.2063 33.2065C42.2063 33.0319 42.1719 32.859 42.105 32.6976C42.0382 32.5363 41.9402 32.3896 41.8167 32.2662L35.2344 25.6839ZM30.5396 34.8517C30.3536 35.0378 30.1167 35.1645 29.8587 35.2159C29.6008 35.2673 29.3333 35.241 29.0903 35.1403C28.8473 35.0397 28.6396 34.8693 28.4934 34.6506C28.3472 34.4319 28.2692 34.1748 28.2692 33.9117C28.2692 33.6487 28.3472 33.3916 28.4934 33.1729C28.6396 32.9542 28.8473 32.7837 29.0903 32.6831C29.3333 32.5825 29.6008 32.5562 29.8587 32.6076C30.1167 32.659 30.3536 32.7857 30.5396 32.9718C30.7888 33.2211 30.9287 33.5592 30.9287 33.9117C30.9287 34.2643 30.7888 34.6024 30.5396 34.8517ZM34.5288 38.841C34.3429 39.027 34.106 39.1537 33.848 39.2051C33.59 39.2565 33.3226 39.2302 33.0796 39.1296C32.8365 39.029 32.6288 38.8585 32.4827 38.6399C32.3365 38.4212 32.2585 38.164 32.2585 37.901C32.2585 37.638 32.3365 37.3808 32.4827 37.1621C32.6288 36.9434 32.8365 36.773 33.0796 36.6724C33.3226 36.5718 33.59 36.5455 33.848 36.5969C34.106 36.6482 34.3429 36.775 34.5288 36.961C34.778 37.2104 34.918 37.5485 34.918 37.901C34.918 38.2535 34.778 38.5916 34.5288 38.841ZM34.5288 30.8624C34.3429 31.0485 34.106 31.1752 33.848 31.2266C33.59 31.278 33.3226 31.2517 33.0796 31.1511C32.8365 31.0505 32.6288 30.88 32.4827 30.6613C32.3365 30.4426 32.2585 30.1855 32.2585 29.9225C32.2585 29.6594 32.3365 29.4023 32.4827 29.1836C32.6288 28.9649 32.8365 28.7945 33.0796 28.6939C33.3226 28.5932 33.59 28.567 33.848 28.6183C34.106 28.6697 34.3429 28.7965 34.5288 28.9825C34.778 29.2319 34.918 29.57 34.918 29.9225C34.918 30.275 34.778 30.6131 34.5288 30.8624ZM38.5181 34.8517C38.3321 35.0378 38.0952 35.1645 37.8372 35.2159C37.5793 35.2673 37.3119 35.241 37.0688 35.1403C36.8258 35.0397 36.6181 34.8693 36.4719 34.6506C36.3258 34.4319 36.2477 34.1748 36.2477 33.9117C36.2477 33.6487 36.3258 33.3916 36.4719 33.1729C36.6181 32.9542 36.8258 32.7837 37.0688 32.6831C37.3119 32.5825 37.5793 32.5562 37.8372 32.6076C38.0952 32.659 38.3321 32.7857 38.5181 32.9718C38.7673 33.2211 38.9073 33.5592 38.9073 33.9117C38.9073 34.2643 38.7673 34.6024 38.5181 34.8517Z" fill="#ffffff"/>
<path d="M51.0092 16.491C49.3836 14.8734 47.1836 13.9653 44.8903 13.9653C42.5969 13.9653 40.3969 14.8734 38.7713 16.491L32.9736 22.2995C32.9204 22.3531 32.887 22.4232 32.8789 22.4983C32.8708 22.5734 32.8886 22.649 32.9292 22.7127C32.9699 22.7764 33.031 22.8243 33.1025 22.8486C33.174 22.8729 33.2516 22.8721 33.3227 22.8464C33.6323 22.722 33.9608 22.6506 34.2942 22.6353C34.8183 22.634 35.3374 22.7365 35.8216 22.9371C36.3058 23.1377 36.7453 23.4323 37.1149 23.8038L43.6964 30.3853C44.0679 30.7549 44.3625 31.1945 44.5631 31.6786C44.7637 32.1628 44.8662 32.6819 44.8649 33.206C44.8497 33.5394 44.7784 33.8679 44.6538 34.1776C44.6281 34.2486 44.6273 34.3262 44.6516 34.3977C44.6759 34.4693 44.7238 34.5304 44.7875 34.571C44.8512 34.6116 44.9268 34.6294 45.0019 34.6213C45.077 34.6132 45.1471 34.5798 45.2007 34.5266L51.0092 28.7289C52.6268 27.1033 53.5349 24.9033 53.5349 22.61C53.5349 20.3166 52.6268 18.1166 51.0092 16.491Z" fill="#ffffff"/>
<path d="M33.451 44.785C32.9275 44.786 32.4088 44.6838 31.9248 44.4842C31.4408 44.2845 31.0009 43.9913 30.6303 43.6215L24.0489 37.0367C23.7256 36.7138 23.4605 36.3377 23.2651 35.9247C22.8837 35.1185 23.1496 33.847 23.4713 32.858C23.4925 32.7872 23.4897 32.7114 23.4631 32.6425C23.4365 32.5736 23.3877 32.5155 23.3245 32.4774C23.2612 32.4393 23.187 32.4233 23.1137 32.432C23.0403 32.4407 22.972 32.4736 22.9194 32.5255L16.5009 38.9283C14.878 40.5511 13.9663 42.7522 13.9663 45.0472C13.9663 47.3423 14.878 49.5433 16.5009 51.1661C18.1237 52.789 20.3247 53.7007 22.6198 53.7007C24.9148 53.7007 27.1159 52.789 28.7387 51.1661L34.785 45.1091C34.8384 45.0555 34.872 44.9853 34.8801 44.91C34.8882 44.8347 34.8704 44.759 34.8296 44.6952C34.7888 44.6314 34.7275 44.5835 34.6557 44.5593C34.584 44.5351 34.5061 44.5362 34.4351 44.5623C34.0877 44.6936 33.7369 44.785 33.451 44.785Z" fill="#ffffff"/>
</svg>
