<svg width="71" height="68" viewBox="0 0 71 68" fill="none" xmlns="http://www.w3.org/2000/svg">
<path d="M31.123 42.828V38.4832H40.1345V42.828C40.1345 43.9803 39.6598 45.0854 38.8148 45.9002C37.9698 46.715 36.8238 47.1728 35.6288 47.1728C34.4338 47.1728 33.2877 46.715 32.4427 45.9002C31.5977 45.0854 31.123 43.9803 31.123 42.828Z" fill="#F84A24"/>
<path fill-rule="evenodd" clip-rule="evenodd" d="M13.0996 34.1382C13.0996 28.3766 15.4731 22.851 19.6981 18.7769C23.923 14.7028 29.6533 12.4141 35.6283 12.4141C41.6033 12.4141 47.3336 14.7028 51.5585 18.7769C55.7835 22.851 58.157 28.3766 58.157 34.1382C58.157 39.8998 55.7835 45.4254 51.5585 49.4995C47.3336 53.5735 41.6033 55.8623 35.6283 55.8623C29.6533 55.8623 23.923 53.5735 19.6981 49.4995C15.4731 45.4254 13.0996 39.8998 13.0996 34.1382ZM28.1187 29.7934C27.2892 30.5932 25.9444 30.5932 25.1149 29.7934C24.2854 28.9935 24.2854 27.6967 25.1149 26.8968C25.9444 26.0969 27.2892 26.0969 28.1187 26.8968C28.9482 27.6967 28.9482 28.9935 28.1187 29.7934ZM46.1417 29.7934C45.3122 30.5932 43.9674 30.5932 43.1379 29.7934C42.3084 28.9935 42.3084 27.6967 43.1379 26.8968C43.9674 26.0969 45.3122 26.0969 46.1417 26.8968C46.9712 27.6967 46.9712 28.9935 46.1417 29.7934ZM25.1149 38.483C26.5301 38.483 28.1187 38.483 28.1187 38.483V42.8278C28.1187 44.7484 28.9099 46.5902 30.3182 47.9483C31.7266 49.3063 33.6366 50.0692 35.6283 50.0692C37.62 50.0692 39.5301 49.3063 40.9384 47.9483C42.3467 46.5902 43.1379 44.7484 43.1379 42.8278V38.483C43.1379 38.483 44.5862 38.5606 46.1417 38.483C47.6973 38.4054 47.8046 35.5865 46.1417 35.5865C44.4789 35.5865 26.6705 35.483 25.1149 35.5865C23.5593 35.6899 23.6997 38.483 25.1149 38.483Z" fill="#F84A24"/>
<path d="M68.2866 33.75C68.2866 51.2524 53.5521 65.5603 35.2263 65.5603C16.9004 65.5603 2.16591 51.2524 2.16591 33.75C2.16591 16.2475 16.9004 1.93965 35.2263 1.93965C53.5521 1.93965 68.2866 16.2475 68.2866 33.75Z" stroke="#F84A24" stroke-width="3.87931"/>
</svg>
