<svg width="68" height="68" viewBox="0 0 68 68" fill="#F84A24" xmlns="http://www.w3.org/2000/svg">
<circle cx="33.75" cy="33.75" r="31.8103" stroke="#F84A24" stroke-width="3.87931"/>
<path d="M36.8312 17.7939C36.8474 17.9887 36.9195 18.1747 37.0389 18.3296C37.1582 18.4844 37.3198 18.6014 37.5041 18.6666L40.0736 19.4997C40.8555 19.7612 41.5657 20.2014 42.1476 20.7855C42.7295 21.3695 43.1672 22.0813 43.4258 22.8641L44.262 25.4321C44.314 25.5801 44.3998 25.7141 44.5124 25.8233C44.6251 25.9326 44.7616 26.0142 44.9111 26.0616C45.0607 26.1091 45.2193 26.1212 45.3743 26.097C45.5294 26.0727 45.6767 26.0128 45.8046 25.9219C45.9574 25.8144 46.0774 25.6664 46.1509 25.4947L46.1525 25.4901L46.1601 25.4748C46.1677 25.4611 46.1753 25.4474 46.1753 25.4321L46.3584 24.8675L46.3569 24.863L47.0115 22.8519C47.2711 22.0712 47.7093 21.3617 48.2912 20.78C48.8732 20.1983 49.5828 19.7605 50.3637 19.5012L52.9332 18.6666C53.1311 18.5967 53.3024 18.4672 53.4235 18.2958C53.5447 18.1245 53.6098 17.9198 53.6098 17.7099C53.6098 17.5001 53.5447 17.2954 53.4235 17.1241C53.3024 16.9527 53.1311 16.8232 52.9332 16.7532L52.8813 16.741L50.3134 15.9064C49.5324 15.647 48.8227 15.209 48.2405 14.6274C47.6584 14.0458 47.2198 13.3364 46.9596 12.5557L46.125 9.9893C46.0554 9.79091 45.9259 9.61904 45.7544 9.49745C45.5828 9.37586 45.3778 9.31055 45.1675 9.31055C44.9573 9.31055 44.7522 9.37586 44.5807 9.49745C44.4092 9.61904 44.2797 9.79091 44.2101 9.9893L43.3755 12.5557L43.3541 12.6198C43.0934 13.3811 42.6624 14.0729 42.0939 14.6424C41.5254 15.212 40.8344 15.6443 40.0736 15.9064L37.5041 16.741C37.2906 16.8163 37.1083 16.9608 36.9864 17.1516C36.8645 17.3424 36.8099 17.5685 36.8312 17.7939ZM51.9796 27.3974L51.9857 27.3958C52.2649 27.0907 52.477 26.7321 52.6051 26.34L53.0614 24.9393C53.0997 24.8315 53.1704 24.7383 53.2639 24.6724C53.3573 24.6064 53.4688 24.571 53.5832 24.571C53.6975 24.571 53.8091 24.6064 53.9025 24.6724C53.996 24.7383 54.0667 24.8315 54.105 24.9393L54.5597 26.34C54.7015 26.7658 54.9407 27.1526 55.2583 27.4696C55.5759 27.7867 55.9631 28.0253 56.3892 28.1664L57.7899 28.6226L57.8189 28.6287C57.9273 28.6663 58.0213 28.7368 58.0879 28.8303C58.1544 28.9238 58.1902 29.0357 58.1902 29.1505C58.1902 29.2653 58.1544 29.3772 58.0879 29.4707C58.0213 29.5643 57.9273 29.6347 57.8189 29.6723L56.4166 30.1286C55.8412 30.3195 55.3404 30.6868 54.9854 31.1783L54.9869 31.1844C54.8176 31.4209 54.6818 31.6834 54.5902 31.9611L54.1325 33.3618C54.0942 33.4695 54.0234 33.5627 53.93 33.6287C53.8366 33.6946 53.725 33.73 53.6107 33.73C53.4963 33.73 53.3848 33.6946 53.2913 33.6287C53.1979 33.5627 53.1272 33.4695 53.0888 33.3618L52.6311 31.9611C52.49 31.5342 52.2509 31.1462 51.9329 30.8283C51.615 30.5103 51.227 30.2712 50.8001 30.1301L49.3979 29.6723C49.2621 29.6247 49.1503 29.526 49.0861 29.3972C49.022 29.2684 49.0107 29.1197 49.0546 28.9827C49.0714 28.93 49.0961 28.8801 49.1278 28.8347L49.1354 28.824C49.2016 28.7309 49.2948 28.6606 49.4025 28.6226L50.8047 28.1664C51.2536 28.0106 51.6572 27.7464 51.9796 27.3974ZM33.775 55.0864C21.9774 55.0864 12.4136 45.5225 12.4136 33.7249C12.4136 21.9273 21.9774 12.3635 33.775 12.3635C35.9859 12.3635 38.1175 12.6992 40.1224 13.3217C39.8802 13.4989 39.6127 13.6388 39.329 13.7367L36.7977 14.5576C36.1451 14.775 35.5767 15.1908 35.1719 15.747C34.7672 16.3032 34.5464 16.972 34.5403 17.6598C34.5343 18.3476 34.7433 19.0202 35.1382 19.5834C35.5331 20.1467 36.094 20.5724 36.7427 20.8012L39.3671 21.6542C39.8072 21.8037 40.2064 22.0534 40.5334 22.3836C40.8605 22.7138 41.1063 23.1154 41.2515 23.5569L42.0831 26.1157C42.3059 26.7809 42.7331 27.3607 43.3038 27.7681C43.8527 28.1564 44.5072 28.3678 45.1796 28.3741C45.852 28.3804 46.5103 28.1812 47.0664 27.8032C46.8746 28.1642 46.763 28.5624 46.7393 28.9706C46.7157 29.3787 46.7804 29.7872 46.9292 30.1679C47.0781 30.5487 47.3074 30.8929 47.6015 31.1768C47.8956 31.4607 48.2477 31.6778 48.6334 31.8131L50.0891 32.2876C50.1739 32.3185 50.2506 32.3681 50.3135 32.4329C50.3764 32.4976 50.4238 32.5758 50.4522 32.6614L50.91 34.053C51.0432 34.4559 51.265 34.8239 51.559 35.13C51.853 35.436 52.2118 35.6724 52.6091 35.8216C53.0064 35.9709 53.4321 36.0293 53.8549 35.9925C54.2777 35.9558 54.687 35.8249 55.0526 35.6093C54.1004 46.5265 44.9379 55.0864 33.775 55.0864ZM27.6718 32.1991C28.4811 32.1991 29.2573 31.8776 29.8296 31.3053C30.4019 30.733 30.7234 29.9568 30.7234 29.1475C30.7234 28.3381 30.4019 27.5619 29.8296 26.9896C29.2573 26.4173 28.4811 26.0958 27.6718 26.0958C26.8624 26.0958 26.0862 26.4173 25.5139 26.9896C24.9416 27.5619 24.6201 28.3381 24.6201 29.1475C24.6201 29.9568 24.9416 30.733 25.5139 31.3053C26.0862 31.8776 26.8624 32.1991 27.6718 32.1991ZM42.9299 29.1475C42.9299 28.3381 42.6084 27.5619 42.0361 26.9896C41.4638 26.4173 40.6876 26.0958 39.8783 26.0958C39.069 26.0958 38.2928 26.4173 37.7205 26.9896C37.1482 27.5619 36.8267 28.3381 36.8267 29.1475C36.8267 29.9568 37.1482 30.733 37.7205 31.3053C38.2928 31.8776 39.069 32.1991 39.8783 32.1991C40.6876 32.1991 41.4638 31.8776 42.0361 31.3053C42.6084 30.733 42.9299 29.9568 42.9299 29.1475ZM23.9381 38.4641C23.5764 38.6451 23.3015 38.9623 23.1736 39.346C23.0457 39.7297 23.0753 40.1484 23.256 40.5102V40.5148L23.2591 40.5179L23.2637 40.527L23.2759 40.5499C23.323 40.641 23.3739 40.73 23.4285 40.8169C23.5276 40.9802 23.6726 41.2014 23.8648 41.4578C24.3865 42.148 24.993 42.7698 25.6699 43.3086C27.3513 44.6544 29.9727 45.9315 33.775 45.9315C37.5789 45.9315 40.1987 44.6544 41.8802 43.3071C42.5569 42.7692 43.1633 42.1484 43.6852 41.4593C43.8873 41.1899 44.0723 40.9081 44.2391 40.6155L44.2574 40.5835L44.2742 40.5499L44.2864 40.527L44.291 40.5179L44.294 40.5133V40.5102C44.4621 40.151 44.4836 39.7405 44.3541 39.3656C44.2247 38.9907 43.9543 38.681 43.6004 38.5021C43.2465 38.3231 42.8368 38.289 42.4581 38.407C42.0795 38.5249 41.7616 38.7857 41.572 39.1339L41.5659 39.1446L41.514 39.2331C41.4304 39.3691 41.3403 39.501 41.2439 39.6283C40.9876 39.9716 40.5725 40.4461 39.9744 40.9253C38.795 41.8682 36.8373 42.8798 33.775 42.8798C30.7127 42.8798 28.7551 41.8682 27.5756 40.9268C27.0998 40.5488 26.6733 40.1125 26.3061 39.6283C26.19 39.4735 26.083 39.312 25.9857 39.1446L25.9796 39.1339C25.7967 38.7754 25.4795 38.5036 25.0971 38.3779C24.7147 38.2521 24.2981 38.2826 23.9381 38.4626V38.4641Z" fill="#ffffff"/>
</svg>
