<svg width="68" height="68" viewBox="0 0 68 68" fill="#FB991C" xmlns="http://www.w3.org/2000/svg">
<circle cx="33.6815" cy="33.5311" r="31.604" stroke="#FB991C" stroke-width="3.85415"/>
<path d="M11.5 34C11.5 21.5733 21.5733 11.5 34 11.5C46.4268 11.5 56.5 21.5733 56.5 34C56.5 46.4268 46.4268 56.5 34 56.5C21.5733 56.5 11.5 46.4268 11.5 34ZM26.6875 31.75C27.4334 31.75 28.1488 31.4537 28.6762 30.9262C29.2037 30.3988 29.5 29.6834 29.5 28.9375C29.5 28.1916 29.2037 27.4762 28.6762 26.9488C28.1488 26.4213 27.4334 26.125 26.6875 26.125C25.9416 26.125 25.2262 26.4213 24.6988 26.9488C24.1713 27.4762 23.875 28.1916 23.875 28.9375C23.875 29.6834 24.1713 30.3988 24.6988 30.9262C25.2262 31.4537 25.9416 31.75 26.6875 31.75ZM44.125 28.9375C44.125 28.1916 43.8287 27.4762 43.3012 26.9488C42.7738 26.4213 42.0584 26.125 41.3125 26.125C40.5666 26.125 39.8512 26.4213 39.3238 26.9488C38.7963 27.4762 38.5 28.1916 38.5 28.9375C38.5 29.6834 38.7963 30.3988 39.3238 30.9262C39.8512 31.4537 40.5666 31.75 41.3125 31.75C42.0584 31.75 42.7738 31.4537 43.3012 30.9262C43.8287 30.3988 44.125 29.6834 44.125 28.9375ZM27.7585 46.0161C29.6851 47.0172 31.8291 47.5269 34 47.5C36.1708 47.5269 38.3147 47.0172 40.2411 46.0163C42.1676 45.0154 43.8171 43.5542 45.043 41.7625C45.238 41.4447 45.2988 41.0625 45.2119 40.7C45.1251 40.3374 44.8978 40.0242 44.5801 39.8292C44.2623 39.6342 43.8801 39.5734 43.5175 39.6603C43.155 39.7471 42.8417 39.9744 42.6468 40.2921C41.6733 41.6745 40.3765 42.7977 38.8693 43.5639C37.3622 44.33 35.6905 44.7158 34 44.6875C32.3095 44.7152 30.6378 44.3292 29.1306 43.5631C27.6233 42.797 26.3262 41.6741 25.3521 40.2921C25.1571 39.9744 24.8439 39.7471 24.4813 39.6603C24.1188 39.5734 23.7366 39.6342 23.4188 39.8292C23.101 40.0242 22.8738 40.3374 22.7869 40.7C22.7001 41.0625 22.7609 41.4447 22.9559 41.7625C24.1821 43.5542 25.8318 45.0154 27.7585 46.0161Z" fill="#ffffff"/>
</svg>
