<svg width="68" height="68" viewBox="0 0 68 68" fill="#FB991C" xmlns="http://www.w3.org/2000/svg">
<circle cx="34.4066" cy="33.5311" r="31.604" stroke="#FB991C" stroke-width="3.85415"/>
<path d="M34.4058 12.3333C30.2133 12.3333 26.1149 13.5765 22.629 15.9057C19.143 18.235 16.426 21.5456 14.8216 25.419C13.2172 29.2924 12.7974 33.5546 13.6153 37.6666C14.4333 41.7785 16.4521 45.5556 19.4167 48.5202C22.3813 51.4848 26.1584 53.5037 30.2704 54.3216C34.3823 55.1395 38.6445 54.7197 42.5179 53.1153C46.3913 51.5109 49.702 48.7939 52.0312 45.308C54.3604 41.822 55.6037 37.7236 55.6037 33.5311C55.6037 27.9091 53.3703 22.5173 49.395 18.542C45.4196 14.5666 40.0279 12.3333 34.4058 12.3333ZM46.3296 28.6026C46.3296 29.0742 46.1898 29.5353 45.9277 29.9275C45.6657 30.3197 45.2932 30.6253 44.8575 30.8058C44.4217 30.9863 43.9422 31.0335 43.4796 30.9415C43.017 30.8495 42.5921 30.6224 42.2586 30.2889C41.9251 29.9553 41.698 29.5304 41.6059 29.0678C41.5139 28.6052 41.5611 28.1257 41.7416 27.69C41.9221 27.2542 42.2278 26.8818 42.62 26.6197C43.0121 26.3577 43.4732 26.2178 43.9449 26.2178C44.5773 26.2178 45.1839 26.4691 45.6311 26.9163C46.0784 27.3635 46.3296 27.9701 46.3296 28.6026ZM25.728 30.9873C25.2563 30.9873 24.7953 30.8475 24.4031 30.5854C24.0109 30.3234 23.7053 29.951 23.5248 29.5152C23.3443 29.0794 23.297 28.5999 23.3891 28.1373C23.4811 27.6747 23.7082 27.2498 24.0417 26.9163C24.3752 26.5828 24.8001 26.3557 25.2627 26.2637C25.7253 26.1716 26.2048 26.2189 26.6406 26.3994C27.0763 26.5799 27.4488 26.8855 27.7108 27.2777C27.9729 27.6699 28.1127 28.1309 28.1127 28.6026C28.1128 28.9203 28.0494 29.2348 27.9263 29.5276C27.8031 29.8204 27.6227 30.0857 27.3956 30.3079C27.1685 30.53 26.8994 30.7046 26.6039 30.8213C26.3084 30.9379 25.9926 30.9944 25.675 30.9873H25.728ZM44.2761 40.9636C44.4869 41.2447 44.5774 41.598 44.5277 41.9459C44.4781 42.2937 44.2922 42.6076 44.0111 42.8184C43.73 43.0292 43.3767 43.1197 43.0288 43.07C42.681 43.0203 42.3671 42.8345 42.1563 42.5534C41.2821 41.3833 40.1438 40.4363 38.8343 39.7895C37.5247 39.1426 36.0809 38.8142 34.6204 38.831C33.1599 38.8478 31.724 39.2093 30.4297 39.8861C29.1354 40.5629 28.0192 41.5358 27.1721 42.7256C26.9683 43.012 26.6591 43.2057 26.3125 43.2641C25.9659 43.3225 25.6103 43.2408 25.3239 43.037C25.0375 42.8332 24.8438 42.524 24.7855 42.1774C24.7271 41.8308 24.8088 41.4752 25.0126 41.1888C26.1015 39.6591 27.5362 38.4083 29.2 37.538C30.8638 36.6677 32.7096 36.2027 34.5871 36.1808C36.4646 36.1588 38.3208 36.5806 40.0044 37.4117C41.6881 38.2428 43.1517 39.4598 44.2761 40.9636Z" fill="#ffffff"/>
</svg>
