<svg width="68" height="68" viewBox="0 0 68 68" fill="none" xmlns="http://www.w3.org/2000/svg">
<path d="M33.531 55.4999C21.8234 55.4999 12.3331 46.0096 12.3331 34.3021C12.3331 22.5945 21.8234 13.1042 33.531 13.1042C45.2385 13.1042 54.7288 22.5945 54.7288 34.3021C54.7288 46.0096 45.2385 55.4999 33.531 55.4999ZM25.0518 36.4219C25.0518 38.6707 25.9452 40.8274 27.5353 42.4175C29.1255 44.0077 31.2822 44.901 33.531 44.901C35.7798 44.901 37.9365 44.0077 39.5266 42.4175C41.1168 40.8274 42.0101 38.6707 42.0101 36.4219H25.0518ZM25.0518 32.1823C25.8951 32.1823 26.7039 31.8473 27.3002 31.251C27.8965 30.6547 28.2315 29.8459 28.2315 29.0026C28.2315 28.1593 27.8965 27.3506 27.3002 26.7543C26.7039 26.1579 25.8951 25.8229 25.0518 25.8229C24.2085 25.8229 23.3998 26.1579 22.8035 26.7543C22.2072 27.3506 21.8722 28.1593 21.8722 29.0026C21.8722 29.8459 22.2072 30.6547 22.8035 31.251C23.3998 31.8473 24.2085 32.1823 25.0518 32.1823ZM42.0101 32.1823C42.8534 32.1823 43.6622 31.8473 44.2585 31.251C44.8548 30.6547 45.1898 29.8459 45.1898 29.0026C45.1898 28.1593 44.8548 27.3506 44.2585 26.7543C43.6622 26.1579 42.8534 25.8229 42.0101 25.8229C41.1668 25.8229 40.358 26.1579 39.7617 26.7543C39.1654 27.3506 38.8304 28.1593 38.8304 29.0026C38.8304 29.8459 39.1654 30.6547 39.7617 31.251C40.358 31.8473 41.1668 32.1823 42.0101 32.1823Z" fill="#FB991C"/>
<circle cx="33.5311" cy="33.5311" r="31.604" stroke="#FB991C" stroke-width="3.85415"/>
</svg>
