<svg width="68" height="68" viewBox="0 0 68 68" fill="#FB991C" xmlns="http://www.w3.org/2000/svg">
<circle cx="33.5311" cy="33.5311" r="31.604" stroke="#FB991C" stroke-width="3.85415"/>
<path d="M33.5306 11.5625C21.3947 11.5625 11.562 21.3952 11.562 33.5312C11.562 45.6671 21.3947 55.4998 33.5306 55.4998C45.6665 55.4998 55.4993 45.6671 55.4993 33.5312C55.4993 21.3952 45.6665 11.5625 33.5306 11.5625ZM23.6093 32.1138C23.6093 31.29 23.9725 30.5636 24.5394 30.041L21.7933 29.2172C21.0404 28.9957 20.6152 28.1984 20.8455 27.4543C21.0669 26.7014 21.8553 26.285 22.6083 26.5065L29.695 28.6325C30.4479 28.854 30.8731 29.6512 30.6428 30.3953C30.4568 31.0065 29.8987 31.4052 29.2875 31.4052C29.2432 31.4052 29.19 31.3874 29.1369 31.3874C29.1989 31.6266 29.2875 31.8569 29.2875 32.1138C29.2875 33.6818 28.0207 34.9485 26.4528 34.9485C24.8849 34.9485 23.6093 33.6818 23.6093 32.1138ZM38.4913 45.7734C36.0287 42.8147 31.0326 42.8147 28.5611 45.7734C27.3652 47.2173 25.1772 45.4013 26.3819 43.9574C28.1536 41.8314 30.758 40.609 33.5218 40.609C36.2856 40.609 38.8899 41.8314 40.6616 43.9574C41.884 45.419 39.6783 47.1996 38.4913 45.7734ZM45.2768 29.2172L42.5307 30.041C43.0888 30.5548 43.4608 31.29 43.4608 32.1138C43.4608 33.6818 42.1941 34.9485 40.6261 34.9485C39.0582 34.9485 37.7915 33.6818 37.7915 32.1138C37.7915 31.8569 37.8712 31.6178 37.9421 31.3874C37.8889 31.3963 37.8446 31.4052 37.7915 31.4052C37.1803 31.4052 36.6222 31.0065 36.4361 30.3953C36.2147 29.6424 36.6399 28.854 37.384 28.6325L44.4707 26.5065C45.2148 26.285 46.012 26.7102 46.2335 27.4543C46.4549 28.2073 46.0297 28.9957 45.2768 29.2172Z" fill="#ffffff"/>
</svg>
